<?xml version="1.0" encoding="utf-8"?>
<!-- Generator: Adobe Illustrator 21.0.2, SVG Export Plug-In . SVG Version: 6.00 Build 0)  -->
<svg version="1.1" height="150" width="500" id="gplay" xmlns="http://www.w3.org/2000/svg" xmlns:xlink="http://www.w3.org/1999/xlink" x="0px" y="0px"
	 viewBox="0 0 500 150" style="enable-background:new 0 0 500 150;" xml:space="preserve">
<style type="text/css">
	.st0{fill:#FFFFFF;fill-opacity:0;}
	.st1{fill:#A6A6A6;}
	.st2{fill:#FFFFFF;}
	.st3{fill:url(#SVGID_1_);}
	.st4{fill:url(#SVGID_2_);}
	.st5{fill:url(#SVGID_3_);}
	.st6{fill:url(#SVGID_4_);}
	.st7{opacity:0.2;enable-background:new    ;}
	.st8{opacity:0.12;enable-background:new    ;}
	.st9{opacity:0.25;fill:#FFFFFF;enable-background:new    ;}
	.st10{fill:#FFFFFF;stroke:#FFFFFF;stroke-width:0.2;stroke-miterlimit:10;}
</style>
<g>
	<g>
		<rect x="-33.5" y="-34.7" class="st0" width="567" height="219.5"/>
		<g>
			<path d="M478.6,148.2H21.4c-10.2,0-18.3-8-18.3-18.3V20.1c0-9.9,8-18.3,18.3-18.3h457.3c10.2,0,18.3,8,18.3,18.3v109.7
				C496.9,139.7,488.9,148.2,478.6,148.2z"/>
		</g>
		<g>
			<g>
				<path class="st1" d="M478.6,4.8c8.4,0,15.4,7,15.4,15.4v109.7c0,8.4-7,15.4-15.4,15.4H21.4c-8.4,0-15.4-7-15.4-15.4V20.1
					c0-8.4,7-15.4,15.4-15.4L478.6,4.8 M478.6,1.8H21.4c-10.2,0-18.3,8-18.3,18.3v109.7c0,10.2,8,18.3,18.3,18.3h457.3
					c10.2,0,18.3-8,18.3-18.3V20.1C496.9,10.3,488.9,1.8,478.6,1.8L478.6,1.8z"/>
			</g>
		</g>
		<path class="st2" d="M252.2,81.6c-8.8,0-15.7,6.6-15.7,15.7c0,8.8,7,15.7,15.7,15.7c8.8,0,15.7-6.6,15.7-15.7
			C267.9,87.8,261,81.6,252.2,81.6z M252.2,106.5c-4.8,0-8.8-4-8.8-9.5s4-9.5,8.8-9.5c4.8,0,8.8,3.7,8.8,9.5
			C261,102.4,257,106.5,252.2,106.5z M218.2,81.6c-8.8,0-15.7,6.6-15.7,15.7c0,8.8,7,15.7,15.7,15.7c8.8,0,15.7-6.6,15.7-15.7
			C233.9,87.8,227,81.6,218.2,81.6z M218.2,106.5c-4.8,0-8.8-4-8.8-9.5s4-9.5,8.8-9.5c4.8,0,8.8,3.7,8.8,9.5
			C227,102.4,222.9,106.5,218.2,106.5z M177.6,86.3v6.6h15.7c-0.4,3.7-1.8,6.6-3.7,8.4c-1.8,2.2-5.5,4.8-12.1,4.8
			c-9.9,0-17.2-7.7-17.2-17.6S168.1,71,177.6,71c5.1,0,9.1,2.2,12.1,4.8l4.8-4.8c-4-3.7-9.1-6.6-16.5-6.6c-13.2,0-24.5,11-24.5,24.1
			s11.3,24.1,24.5,24.1c7.3,0,12.4-2.2,16.8-7c4.4-4.4,5.9-10.6,5.9-15.4c0-1.5,0-2.9-0.4-4C200.3,86.3,177.6,86.3,177.6,86.3z
			 M343.6,91.5c-1.5-3.7-5.1-9.9-13.2-9.9s-14.6,6.2-14.6,15.7c0,8.8,6.6,15.7,15.4,15.7c7,0,11.3-4.4,12.8-7l-5.1-3.7
			c-1.8,2.6-4,4.4-7.7,4.4c-3.7,0-5.9-1.5-7.7-4.8l20.9-8.8L343.6,91.5z M322.4,96.6c0-5.9,4.8-9.1,8-9.1c2.6,0,5.1,1.5,5.9,3.3
			L322.4,96.6z M305.2,111.6h7V65.9h-7V111.6z M294.3,84.9L294.3,84.9c-1.8-1.8-4.8-3.7-8.4-3.7c-7.7,0-15,7-15,15.7s7,15.4,15,15.4
			c3.7,0,6.6-1.8,8-3.7h0.4v2.2c0,5.9-3.3,9.1-8.4,9.1c-4,0-7-2.9-7.7-5.5l-6.2,2.9c1.8,4,6.2,9.1,13.9,9.1c8,0,14.6-4.8,14.6-16.1
			V82.7h-6.6v2.2H294.3z M286.2,106.5c-4.8,0-8.8-4-8.8-9.5s4-9.5,8.8-9.5s8.4,4,8.4,9.5C294.6,102.4,291,106.5,286.2,106.5z
			 M375.5,65.9H359v45.7h7V94.4h9.5c7.7,0,15-5.5,15-14.3S383.2,65.9,375.5,65.9z M375.8,87.8H366V72.1h9.9c5.1,0,8,4.4,8,7.7
			C383.5,83.8,380.6,87.8,375.8,87.8z M417.9,81.2c-5.1,0-10.2,2.2-12.1,7l6.2,2.6c1.5-2.6,3.7-3.3,6.2-3.3c3.7,0,7,2.2,7.3,5.9v0.4
			c-1.1-0.7-4-1.8-7-1.8c-6.6,0-13.2,3.7-13.2,10.2c0,6.2,5.5,10.2,11.3,10.2c4.8,0,7-2.2,8.8-4.4h0.4v3.7h6.6V94
			C431.8,86,425.6,81.2,417.9,81.2z M417.2,106.5c-2.2,0-5.5-1.1-5.5-4c0-3.7,4-4.8,7.3-4.8c2.9,0,4.4,0.7,6.2,1.5
			C424.5,103.5,420.8,106.5,417.2,106.5z M455.6,82.3l-7.7,19.8h-0.4l-8-19.8h-7.3l12.1,27.8l-7,15.4h7l18.7-43.2H455.6z
			 M394.1,111.6h7V65.9h-7V111.6z"/>
		<g>
			
				<linearGradient id="SVGID_1_" gradientUnits="userSpaceOnUse" x1="82.7167" y1="0.5907" x2="21.3256" y2="61.9818" gradientTransform="matrix(1 0 0 1 0 33)">
				<stop  offset="0" style="stop-color:#00A0FF"/>
				<stop  offset="6.574450e-03" style="stop-color:#00A1FF"/>
				<stop  offset="0.2601" style="stop-color:#00BEFF"/>
				<stop  offset="0.5122" style="stop-color:#00D2FF"/>
				<stop  offset="0.7604" style="stop-color:#00DFFF"/>
				<stop  offset="1" style="stop-color:#00E3FF"/>
			</linearGradient>
			<path class="st3" d="M41.1,29.3c-1.1,1.1-1.8,2.9-1.8,5.1v80.8c0,2.2,0.7,4,1.8,5.1l0.4,0.4l45.4-45.4V75v-0.4L41.1,29.3
				L41.1,29.3z"/>
			
				<linearGradient id="SVGID_2_" gradientUnits="userSpaceOnUse" x1="126.8491" y1="42.3658" x2="38.3352" y2="42.3658" gradientTransform="matrix(1 0 0 1 0 33)">
				<stop  offset="0" style="stop-color:#FFE000"/>
				<stop  offset="0.4087" style="stop-color:#FFBD00"/>
				<stop  offset="0.7754" style="stop-color:#FFA500"/>
				<stop  offset="1" style="stop-color:#FF9C00"/>
			</linearGradient>
			<path class="st4" d="M101.8,90.7l-15-15v-0.4V75l15-15l0.4,0.4l17.9,10.2c5.1,2.9,5.1,7.7,0,10.6L101.8,90.7L101.8,90.7z"/>
			
				<linearGradient id="SVGID_3_" gradientUnits="userSpaceOnUse" x1="93.8572" y1="50.357" x2="10.6058" y2="133.6084" gradientTransform="matrix(1 0 0 1 0 33)">
				<stop  offset="0" style="stop-color:#FF3A44"/>
				<stop  offset="1" style="stop-color:#C31162"/>
			</linearGradient>
			<path class="st5" d="M102.2,90.4L86.9,75l-45.7,45.7c1.8,1.8,4.4,1.8,7.7,0.4L102.2,90.4"/>
			
				<linearGradient id="SVGID_4_" gradientUnits="userSpaceOnUse" x1="29.6443" y1="-30.3864" x2="66.8197" y2="6.7887" gradientTransform="matrix(1 0 0 1 0 33)">
				<stop  offset="0" style="stop-color:#32A071"/>
				<stop  offset="6.850000e-02" style="stop-color:#2DA771"/>
				<stop  offset="0.4762" style="stop-color:#15CF74"/>
				<stop  offset="0.8009" style="stop-color:#06E775"/>
				<stop  offset="1" style="stop-color:#00F076"/>
			</linearGradient>
			<path class="st6" d="M102.2,59.6L48.8,29.3c-3.3-1.8-5.9-1.5-7.7,0.4l45.7,45.7L102.2,59.6z"/>
			<g>
				<path class="st7" d="M101.8,90l-53,30.4c-2.9,1.8-5.5,1.5-7.3,0l0,0l-0.4,0.4l0,0h0.4l0,0c1.8,1.5,4.4,1.8,7.3,0L101.8,90
					L101.8,90z"/>
				<path class="st8" d="M41.1,120c-1.1-1.1-1.8-2.9-1.8-5.1v0.4c0,2.2,0.7,4,1.8,5.1V120L41.1,120z"/>
			</g>
			<path class="st8" d="M120.1,79.8L101.8,90l0.4,0.4l17.9-10.2c2.6-1.5,3.7-3.3,3.7-5.1l0,0C123.8,76.8,122.3,78.3,120.1,79.8z"/>
			<path class="st9" d="M48.8,29.6l71.3,40.6c2.2,1.5,3.7,2.9,3.7,4.8l0,0c0-1.8-1.1-3.7-3.7-5.1L48.8,29.3
				c-5.1-2.9-9.1-0.4-9.1,5.5v0.4C39.7,29.3,43.7,26.7,48.8,29.6z"/>
		</g>
	</g>
	<g>
		<path class="st10" d="M154.2,49.4V27.4h6.6c3.3,0,6.2,1.1,8,2.9c2.2,2.2,2.9,4.8,2.9,8c0,3.3-1.1,5.9-2.9,8
			c-2.2,2.2-4.8,2.9-8,2.9H154.2z M157.1,46.8h4c2.6,0,4.4-0.7,5.9-2.2c1.5-1.5,2.2-3.7,2.2-6.2c0-2.6-0.7-4.8-2.2-6.2
			c-1.5-1.5-3.7-2.2-5.9-2.2h-4V46.8z"/>
		<path class="st10" d="M175.7,49.4V27.4h2.9v21.9H175.7z"/>
		<path class="st10" d="M190,49.8c-1.5,0-3.3-0.4-4.8-1.5c-1.5-1.1-2.6-2.6-2.9-4.4l2.6-1.1c0.4,1.1,1.1,2.2,1.8,2.9
			c1.1,0.7,2.2,1.1,3.3,1.1c1.1,0,2.2-0.4,3.3-1.1c0.7-0.7,1.5-1.5,1.5-2.6s-0.4-2.2-1.5-2.9c-0.7-0.7-2.2-1.5-4-1.8
			c-1.8-0.7-3.3-1.5-4.4-2.2c-1.1-1.1-1.5-2.2-1.5-3.7c0-1.5,0.7-2.9,1.8-4c1.1-1.1,2.9-1.8,4.8-1.8c1.8,0,3.3,0.4,4.4,1.5
			s1.8,1.8,2.2,2.9l-2.6,1.1c-0.4-0.7-0.7-1.5-1.5-1.8c-0.7-0.7-1.8-0.7-2.9-0.7s-1.8,0.4-2.9,0.7c-0.7,0.7-1.1,1.5-1.1,2.2
			c0,0.7,0.4,1.5,1.1,2.2c0.7,0.7,1.8,1.1,3.3,1.5c1.1,0.4,1.8,0.7,2.6,1.1c0.7,0.4,1.5,0.7,2.2,1.5c0.7,0.4,1.5,1.1,1.8,2.2
			c0.4,1.1,0.7,1.8,0.7,2.9s-0.4,2.2-0.7,2.9c-0.4,0.7-1.1,1.5-1.8,1.8c-0.7,0.4-1.5,0.7-2.2,1.1C191.8,49.8,190.7,49.8,190,49.8z"
			/>
		<path class="st10" d="M204.3,49.4h-2.9V27.4h7.3c1.8,0,3.3,0.7,4.8,1.8c1.5,1.1,2.2,2.9,2.2,4.8s-0.7,3.3-2.2,4.8
			c-1.5,1.1-2.9,1.8-4.8,1.8h-4.8v8.8H204.3z M204.3,37.7h4.8c1.1,0,2.2-0.4,2.9-1.1c0.7-0.7,1.1-1.8,1.1-2.6s-0.4-1.8-1.1-2.6
			c-0.7-0.7-1.8-1.1-2.9-1.1h-4.8V37.7z"/>
		<path class="st10" d="M237.2,46.5c-2.2,2.2-4.8,3.3-8,3.3s-5.9-1.1-8-3.3s-3.3-4.8-3.3-8c0-3.3,1.1-5.9,3.3-8
			c2.2-2.2,4.8-3.3,8-3.3s5.9,1.1,8,3.3c2.2,2.2,3.3,4.8,3.3,8C240.5,41.7,239.4,44.3,237.2,46.5z M223.3,44.6
			c1.5,1.5,3.7,2.6,5.9,2.6c2.2,0,4.4-0.7,5.9-2.6c1.5-1.5,2.6-3.7,2.6-6.2c0-2.6-0.7-4.8-2.6-6.2c-1.5-1.5-3.7-2.6-5.9-2.6
			c-2.2,0-4.4,0.7-5.9,2.6c-1.5,1.5-2.6,3.7-2.6,6.2C220.7,41,221.5,43.2,223.3,44.6z"/>
		<path class="st10" d="M244.5,49.4V27.4h3.3l10.6,17.2l0,0v-4.4V27.4h2.9v21.9h-2.9l-11.3-17.9l0,0v4.4v13.5H244.5z"/>
		<path class="st10" d="M266.5,49.4V27.4h2.9v21.9H266.5z"/>
		<path class="st10" d="M274.1,49.4V27.4h8c1.8,0,3.3,0.7,4.4,1.8c1.1,1.1,1.8,2.6,1.8,4.4c0,1.1-0.4,1.8-0.7,2.9
			c-0.4,0.7-1.1,1.5-2.2,1.8l0,0c1.1,0.4,1.8,1.1,2.6,1.8s1.1,1.8,1.1,3.3c0,1.8-0.7,3.3-1.8,4.4c-1.5,1.1-2.9,1.8-4.8,1.8h-8.4
			V49.4z M277.1,37h5.1c1.1,0,1.8-0.4,2.6-1.1s1.1-1.5,1.1-2.2c0-0.7-0.4-1.5-1.1-2.2c-0.7-0.7-1.5-1.1-2.6-1.1h-5.1V37z
			 M277.1,46.8h5.9c1.1,0,1.8-0.4,2.6-1.1c0.7-0.7,1.1-1.5,1.1-2.6c0-0.7-0.4-1.8-1.1-2.6c-0.7-0.7-1.5-1.1-2.6-1.1h-5.5v7.3H277.1z
			"/>
		<path class="st10" d="M292.8,49.4V27.4h2.9v19.4h9.5v2.6H292.8z"/>
		<path class="st10" d="M321.7,30h-9.9v7h9.1v2.6h-9.1v7h9.9V49h-12.8V27.1h12.8V30z"/>
		<path class="st10" d="M346.2,30h-9.9v7h8.8v2.6H336v7h9.9V49H333V27.1h12.8V30H346.2z"/>
		<path class="st10" d="M350.6,49.4V27.4h3.3l10.6,17.2l0,0v-4.4V27.4h2.9v21.9h-2.9l-11.3-17.9l0,0v4.4v13.5H350.6z"/>
	</g>
</g>
</svg>
