<svg width="80" height="80" viewBox="0 0 80 80" fill="none" xmlns="http://www.w3.org/2000/svg">
<path d="M58.1 29.88C58.2138 29.879 58.3264 29.9029 58.43 29.95C58.5363 29.9918 58.6319 30.0567 58.71 30.14C58.7944 30.2172 58.8595 30.3131 58.9 30.42C58.9489 30.5263 58.9696 30.6434 58.96 30.76C58.96 36.06 65.25 42.34 70.56 42.34C70.7757 42.3647 70.9746 42.4682 71.1186 42.6306C71.2626 42.793 71.3414 43.0029 71.34 43.22C71.3386 43.4335 71.2605 43.6393 71.12 43.8C70.9774 43.9649 70.777 44.0687 70.56 44.09C65.25 44.09 59 50.37 59 55.67C59.0211 55.779 59.0211 55.891 59 56C58.9621 56.1177 58.9009 56.2265 58.82 56.32C58.7374 56.4136 58.6359 56.4886 58.5221 56.54C58.4083 56.5914 58.2849 56.6179 58.16 56.6179C58.0352 56.6179 57.9117 56.5914 57.798 56.54C57.6842 56.4886 57.5826 56.4136 57.5 56.32C57.4191 56.2265 57.3579 56.1177 57.32 56C57.2949 55.8813 57.2949 55.7587 57.32 55.64C57.32 50.34 51.03 44.06 45.73 44.06C45.6113 44.0845 45.4888 44.0845 45.37 44.06C45.2515 44.024 45.1423 43.9626 45.05 43.88C44.958 43.7973 44.8862 43.6947 44.84 43.58C44.7887 43.4704 44.7615 43.351 44.76 43.23C44.7603 43.1056 44.7876 42.9828 44.84 42.87C44.8862 42.7553 44.958 42.6527 45.05 42.57C45.1447 42.4908 45.2532 42.4297 45.37 42.39C45.4888 42.3655 45.6113 42.3655 45.73 42.39C51.03 42.39 57.32 36.11 57.32 30.81C57.3196 30.5787 57.4093 30.3563 57.57 30.19C57.6525 30.1069 57.7506 30.0412 57.8588 29.9965C57.967 29.9519 58.083 29.9293 58.2 29.93L58.1 29.88ZM58.1 28.13C57.7546 28.13 57.4126 28.198 57.0936 28.3302C56.7745 28.4624 56.4845 28.6561 56.2403 28.9003C55.9961 29.1445 55.8024 29.4345 55.6702 29.7535C55.538 30.0726 55.47 30.4146 55.47 30.76C55.47 35.08 49.96 40.59 45.63 40.59C45.2902 40.5766 44.9509 40.6275 44.63 40.74C44.2901 40.8595 43.9798 41.0504 43.72 41.3C43.4598 41.5457 43.2523 41.8417 43.11 42.17C42.9738 42.4863 42.8991 42.8257 42.89 43.17C42.8979 43.5144 42.9726 43.8541 43.11 44.17C43.2524 44.4995 43.4607 44.7963 43.7221 45.0422C43.9835 45.2881 44.2925 45.478 44.63 45.6C44.9509 45.7125 45.2902 45.7634 45.63 45.75C49.96 45.75 55.47 51.26 55.47 55.58C55.4396 55.9401 55.4908 56.3025 55.62 56.64C55.7377 56.9799 55.9259 57.291 56.1724 57.553C56.4189 57.815 56.7179 58.0218 57.05 58.16C57.3792 58.2986 57.7328 58.37 58.09 58.37C58.4472 58.37 58.8008 58.2986 59.13 58.16C59.4621 58.0218 59.7612 57.815 60.0076 57.553C60.2541 57.291 60.4423 56.9799 60.56 56.64C60.6876 56.3019 60.7421 55.9407 60.72 55.58C60.72 51.26 66.24 45.75 70.56 45.75C71.0569 45.7152 71.5338 45.5405 71.9357 45.2461C72.3375 44.9517 72.6479 44.5497 72.8309 44.0864C73.0139 43.6231 73.0621 43.1175 72.9699 42.628C72.8778 42.1385 72.649 41.685 72.31 41.32C71.8495 40.8377 71.2253 40.5452 70.56 40.5C66.24 40.5 60.72 34.99 60.72 30.67C60.7195 30.3268 60.6515 29.987 60.52 29.67C60.3916 29.3857 60.2158 29.1253 60 28.9C59.7574 28.6554 59.4684 28.4616 59.15 28.33C58.8327 28.1995 58.4931 28.1315 58.15 28.13H58.1Z" fill="white"/>
<path d="M28.12 49.65C27.8898 49.6513 27.6617 49.607 27.4487 49.5195C27.2358 49.432 27.0424 49.3032 26.8796 49.1404C26.7168 48.9776 26.588 48.7842 26.5005 48.5713C26.413 48.3583 26.3687 48.1302 26.37 47.9C26.37 40.3 17 31 9.43 31C9.08106 31.0031 8.73917 30.9017 8.44826 30.709C8.15734 30.5163 7.93068 30.241 7.79738 29.9185C7.66409 29.5961 7.63024 29.2411 7.70021 28.8992C7.77017 28.5573 7.94073 28.2442 8.19 28C8.52106 27.6749 8.96599 27.4919 9.43 27.49C17.02 27.49 26.37 18.15 26.37 10.55C26.3676 10.3202 26.4118 10.0922 26.5 9.88C26.5886 9.66719 26.7176 9.4736 26.88 9.31C27.0428 9.14661 27.2366 9.01741 27.45 8.93C27.6637 8.84658 27.8906 8.80254 28.12 8.8C28.3491 8.80463 28.5758 8.8486 28.79 8.93C29.2154 9.11166 29.5528 9.45266 29.73 9.88C29.8213 10.0916 29.869 10.3195 29.87 10.55C29.87 18.15 39.2 27.49 46.81 27.49C47.1581 27.489 47.4986 27.5917 47.7879 27.7852C48.0773 27.9787 48.3024 28.2541 48.4345 28.5761C48.5665 28.8982 48.5995 29.2523 48.5292 29.5932C48.459 29.9342 48.2886 30.2464 48.04 30.49C47.8788 30.652 47.6871 30.7805 47.476 30.8681C47.2649 30.9556 47.0385 31.0005 46.81 31C39.2 31 29.87 40.3 29.87 47.9C29.8623 48.3648 29.6761 48.8088 29.35 49.14C29.0214 49.4627 28.5805 49.6455 28.12 49.65Z" fill="#FABB00"/>
<path d="M28.1201 9.64C28.3497 9.64274 28.569 9.7362 28.7301 9.9C28.8927 10.0659 28.9857 10.2877 28.9901 10.52C28.9901 18.68 38.6401 28.33 46.8101 28.33C47.0257 28.3547 47.2246 28.4582 47.3686 28.6206C47.5126 28.783 47.5915 28.9929 47.5901 29.21C47.5887 29.4235 47.5106 29.6293 47.3701 29.79C47.2275 29.9549 47.027 30.0587 46.8101 30.08C38.6401 30.08 29.0001 39.74 29.0001 47.9C28.9741 48.1155 28.8711 48.3144 28.7101 48.46C28.5494 48.6083 28.3387 48.6906 28.1201 48.6906C27.9014 48.6906 27.6908 48.6083 27.5301 48.46C27.368 48.3164 27.2677 48.1158 27.2501 47.9C27.2501 39.74 17.5901 30.08 9.44006 30.08C9.21984 30.0602 9.01572 29.9563 8.87006 29.79C8.72868 29.6279 8.65079 29.4201 8.65079 29.205C8.65079 28.9899 8.72868 28.7821 8.87006 28.62C9.01815 28.4568 9.22096 28.3536 9.44006 28.33C17.5901 28.33 27.2501 18.68 27.2501 10.52C27.2527 10.2874 27.3462 10.0651 27.5107 9.90062C27.6752 9.73615 27.8975 9.6426 28.1301 9.64H28.1201ZM28.1201 7.89C27.7747 7.88992 27.4326 7.95788 27.1135 8.08999C26.7943 8.22211 26.5043 8.4158 26.2601 8.66C26.0141 8.90294 25.8192 9.19268 25.687 9.51213C25.5547 9.83158 25.4878 10.1743 25.4901 10.52C25.4901 17.73 16.6401 26.58 9.43006 26.58C8.76691 26.6282 8.14688 26.9267 7.69566 27.4151C7.24444 27.9035 6.99577 28.5451 7.00006 29.21C6.99003 29.8697 7.2293 30.509 7.67006 31C8.13303 31.4845 8.76127 31.7772 9.43006 31.82C16.6401 31.82 25.4901 40.68 25.4901 47.89C25.5263 48.5575 25.8203 49.1849 26.3101 49.64C26.6751 49.979 27.1285 50.2077 27.618 50.2999C28.1076 50.3921 28.6132 50.3439 29.0765 50.1608C29.5397 49.9778 29.9418 49.6675 30.2362 49.2657C30.5306 48.8638 30.7052 48.3869 30.7401 47.89C30.7401 40.68 39.6001 31.82 46.8101 31.82C47.4753 31.7748 48.0996 31.4823 48.5601 31C49.0162 30.5096 49.2698 29.8647 49.2698 29.195C49.2698 28.5253 49.0162 27.8804 48.5601 27.39C48.0996 26.9077 47.4753 26.6152 46.8101 26.57C39.6001 26.57 30.7401 17.72 30.7401 10.51C30.7395 10.1668 30.6716 9.82702 30.5401 9.51C30.4139 9.19584 30.2308 8.90768 30.0001 8.66C29.7575 8.41535 29.4685 8.22157 29.1501 8.09C28.8327 7.95946 28.4932 7.89155 28.1501 7.89H28.1201Z" fill="white"/>
<path d="M28.17 48.83C28.0553 48.8313 27.9414 48.8098 27.835 48.7669C27.7286 48.724 27.6318 48.6605 27.55 48.58C27.3993 48.4232 27.3105 48.2172 27.3 48C27.3 39.84 17.64 30.18 9.49001 30.18C9.36795 30.2051 9.24207 30.2051 9.12001 30.18C9.00054 30.1463 8.89083 30.0846 8.80001 30C8.70803 29.9173 8.63619 29.8147 8.59001 29.7C8.53873 29.5904 8.51145 29.471 8.51001 29.35C8.51033 29.2256 8.53763 29.1028 8.59001 28.99C8.63619 28.8753 8.70803 28.7727 8.80001 28.69C8.89415 28.6086 9.00385 28.5471 9.12245 28.5092C9.24105 28.4714 9.3661 28.4581 9.49001 28.47C17.64 28.47 27.3 18.82 27.3 10.66C27.3177 10.4442 27.418 10.2436 27.58 10.1C27.7016 9.99337 27.85 9.92189 28.0092 9.89327C28.1684 9.86464 28.3324 9.87994 28.4836 9.93752C28.6347 9.99511 28.7673 10.0928 28.8671 10.2201C28.9669 10.3474 29.0302 10.4995 29.05 10.66C29.05 18.82 38.7 28.47 46.86 28.47C46.9788 28.4455 47.1013 28.4455 47.22 28.47C47.3377 28.5079 47.4465 28.5691 47.54 28.65C47.632 28.7327 47.7038 28.8353 47.75 28.95C47.8024 29.0628 47.8297 29.1856 47.83 29.31C47.8286 29.431 47.8013 29.5504 47.75 29.66C47.7038 29.7747 47.632 29.8773 47.54 29.96C47.4492 30.0446 47.3395 30.1063 47.22 30.14C47.1013 30.1645 46.9788 30.1645 46.86 30.14C38.7 30.14 29.05 39.8 29.05 48C29.0467 48.1165 29.023 48.2316 28.98 48.34C28.9319 48.4428 28.8678 48.5373 28.79 48.62C28.7038 48.698 28.606 48.7621 28.5 48.81C28.3942 48.8484 28.2826 48.8687 28.17 48.87V48.83ZM14.27 29.27C17.4263 30.4898 20.2931 32.3554 22.6867 34.7473C25.0803 37.1392 26.9479 40.0046 28.17 43.16C29.3921 40.0062 31.2586 37.1419 33.6502 34.7502C36.0419 32.3586 38.9062 30.4921 42.06 29.27C38.9062 28.0479 36.0419 26.1814 33.6502 23.7898C31.2586 21.3981 29.3921 18.5338 28.17 15.38C26.9501 18.535 25.0835 21.3997 22.69 23.79C20.2987 26.1869 17.4299 28.054 14.27 29.27Z" fill="#222222"/>
<path d="M58.1 56.55C57.9829 56.5518 57.8669 56.5279 57.76 56.48C57.649 56.442 57.5492 56.3766 57.47 56.29C57.3923 56.2073 57.3281 56.1128 57.28 56.01C57.2371 55.9016 57.2134 55.7865 57.21 55.67C57.21 50.37 50.94 44.09 45.64 44.09C45.518 44.1151 45.3921 44.1151 45.27 44.09C45.1515 44.054 45.0423 43.9926 44.95 43.91C44.8581 43.8273 44.7862 43.7247 44.74 43.61C44.6888 43.5004 44.6615 43.381 44.66 43.26C44.6604 43.1356 44.6877 43.0128 44.74 42.9C44.7862 42.7853 44.8581 42.6827 44.95 42.6C45.0447 42.5208 45.1532 42.4597 45.27 42.42C45.3921 42.3949 45.518 42.3949 45.64 42.42C50.94 42.42 57.21 36.14 57.21 30.84C57.1849 30.7213 57.1849 30.5987 57.21 30.48C57.2473 30.3599 57.3124 30.2502 57.4 30.16C57.5246 30.026 57.687 29.9332 57.8657 29.8939C58.0444 29.8546 58.2307 29.8707 58.4 29.94C58.5123 29.9949 58.6139 30.0694 58.7 30.16C58.7809 30.2535 58.8421 30.3623 58.88 30.48C58.9051 30.5987 58.9051 30.7213 58.88 30.84C58.88 36.14 65.17 42.42 70.48 42.42C70.6957 42.4447 70.8946 42.5482 71.0386 42.7106C71.1826 42.873 71.2614 43.0829 71.26 43.3C71.2586 43.5135 71.1806 43.7193 71.04 43.88C70.8975 44.0449 70.697 44.1487 70.48 44.17C65.25 44.09 59 50.37 59 55.67C58.9967 55.7865 58.973 55.9016 58.93 56.01C58.8884 56.1192 58.8236 56.2182 58.74 56.3C58.6564 56.3813 58.558 56.4458 58.45 56.49C58.3379 56.5307 58.2193 56.551 58.1 56.55Z" fill="#F19C22"/>
<path d="M58.1 56.55C57.9829 56.5518 57.8669 56.5279 57.76 56.48C57.649 56.442 57.5492 56.3766 57.47 56.29C57.3923 56.2073 57.3281 56.1128 57.28 56.01C57.2371 55.9016 57.2134 55.7865 57.21 55.67C57.21 50.37 50.94 44.09 45.64 44.09C45.518 44.1151 45.3921 44.1151 45.27 44.09C45.1515 44.054 45.0423 43.9926 44.95 43.91C44.8581 43.8273 44.7862 43.7247 44.74 43.61C44.6888 43.5004 44.6615 43.381 44.66 43.26C44.6604 43.1356 44.6877 43.0128 44.74 42.9C44.7862 42.7853 44.8581 42.6827 44.95 42.6C45.0447 42.5208 45.1532 42.4597 45.27 42.42C45.3921 42.3949 45.518 42.3949 45.64 42.42C50.94 42.42 57.21 36.14 57.21 30.84C57.1849 30.7213 57.1849 30.5987 57.21 30.48C57.2473 30.3599 57.3124 30.2502 57.4 30.16C57.4791 30.0654 57.5788 29.99 57.6915 29.9398C57.8041 29.8895 57.9268 29.8657 58.05 29.87C58.1735 29.8689 58.2959 29.8927 58.41 29.94C58.5208 29.9926 58.6196 30.0675 58.7 30.16C58.7876 30.2502 58.8527 30.3599 58.89 30.48C58.9151 30.5987 58.9151 30.7213 58.89 30.84C58.89 36.14 65.18 42.42 70.49 42.42C70.7057 42.4447 70.9046 42.5482 71.0486 42.7106C71.1926 42.873 71.2714 43.0829 71.27 43.3C71.2686 43.5135 71.1906 43.7193 71.05 43.88C70.9075 44.0449 70.707 44.1487 70.49 44.17C65.25 44.09 59 50.37 59 55.67C58.9967 55.7865 58.973 55.9016 58.93 56.01C58.8884 56.1192 58.8236 56.2182 58.74 56.3C58.6564 56.3813 58.558 56.4458 58.45 56.49C58.341 56.5296 58.226 56.5499 58.11 56.55H58.1ZM49.63 43.21C53.3962 44.9046 56.4098 47.9219 58.1 51.69C59.784 47.9176 62.7996 44.8984 66.57 43.21C62.7986 41.528 59.782 38.5114 58.1 34.74C56.4125 38.5076 53.3976 41.5225 49.63 43.21Z" fill="#222222"/>
<path d="M42.45 53.81C42.6797 53.8127 42.899 53.9062 43.06 54.07C43.2227 54.2359 43.3157 54.4577 43.32 54.69C43.32 57.69 46.95 61.29 49.92 61.29C50.0388 61.2655 50.1613 61.2655 50.28 61.29C50.3977 61.3279 50.5066 61.3891 50.6 61.47C50.6899 61.5546 50.7613 61.6567 50.81 61.77C50.8624 61.8828 50.8897 62.0056 50.89 62.13C50.8886 62.251 50.8613 62.3704 50.81 62.48C50.7639 62.5947 50.692 62.6973 50.6 62.78C50.5066 62.8609 50.3977 62.9221 50.28 62.96C50.1613 62.9845 50.0388 62.9845 49.92 62.96C46.92 62.96 43.32 66.6 43.32 69.56C43.2941 69.7755 43.1911 69.9744 43.03 70.12C42.8693 70.2683 42.6587 70.3506 42.44 70.3506C42.2214 70.3506 42.0107 70.2683 41.85 70.12C41.688 69.9764 41.5877 69.7758 41.57 69.56C41.57 66.56 37.93 62.96 34.96 62.96C34.7431 62.9387 34.5426 62.8349 34.4 62.67C34.2587 62.5079 34.1808 62.3001 34.1808 62.085C34.1808 61.8699 34.2587 61.6621 34.4 61.5C34.5456 61.339 34.7445 61.236 34.96 61.21C37.96 61.21 41.57 57.57 41.57 54.61C41.5726 54.3774 41.6662 54.1551 41.8307 53.9906C41.9951 53.8261 42.2175 53.7326 42.45 53.73V53.81ZM42.45 52.06C41.7501 52.0626 41.0789 52.339 40.58 52.83C40.0915 53.3256 39.8183 53.9941 39.82 54.69C39.82 56.69 36.96 59.54 34.96 59.54C34.2915 59.5809 33.6641 59.8762 33.2066 60.3654C32.7491 60.8545 32.4962 61.5003 32.5 62.17C32.4993 62.8446 32.7588 63.4934 33.2245 63.9815C33.6902 64.4695 34.3262 64.7591 35 64.79C37 64.79 39.86 67.65 39.86 69.64C39.8979 70.31 40.1914 70.94 40.68 71.4C41.0457 71.7393 41.5 71.9681 41.9904 72.0599C42.4807 72.1516 42.987 72.1025 43.4506 71.9184C43.9142 71.7342 44.3161 71.4224 44.6098 71.0192C44.9035 70.6159 45.077 70.1378 45.11 69.64C45.11 67.64 47.97 64.79 49.96 64.79C50.2998 64.8034 50.6391 64.7525 50.96 64.64C51.2976 64.518 51.6065 64.3282 51.868 64.0822C52.1294 63.8363 52.3377 63.5395 52.48 63.21C52.6174 62.8941 52.6922 62.5544 52.7 62.21C52.6974 61.8488 52.6226 61.4918 52.48 61.16C52.3378 60.8317 52.1302 60.5357 51.87 60.29C51.6102 60.0404 51.2999 59.8495 50.96 59.73C50.6391 59.6175 50.2998 59.5666 49.96 59.58C47.96 59.58 45.11 56.72 45.11 54.73C45.1095 54.3877 45.045 54.0486 44.92 53.73C44.7921 53.4091 44.6018 53.1168 44.36 52.87C44.1127 52.6214 43.821 52.4213 43.5 52.28C43.1824 52.1506 42.843 52.0828 42.5 52.08L42.45 52.06Z" fill="white"/>
<path d="M42.4501 70.52C42.2171 70.5188 41.9942 70.4253 41.8301 70.26C41.7468 70.1798 41.6809 70.0834 41.6362 69.9768C41.5914 69.8702 41.569 69.7556 41.5701 69.64C41.5701 66.64 37.9301 63.04 34.9601 63.04C34.7431 63.0187 34.5426 62.9149 34.4001 62.75C34.2587 62.5879 34.1808 62.3801 34.1808 62.165C34.1808 61.9499 34.2587 61.7421 34.4001 61.58C34.5456 61.419 34.7445 61.316 34.9601 61.29C37.9601 61.29 41.5701 57.65 41.5701 54.69C41.545 54.5713 41.545 54.4487 41.5701 54.33C41.6074 54.2099 41.6724 54.1002 41.7601 54.01C41.8846 53.876 42.0471 53.7832 42.2257 53.7439C42.4044 53.7046 42.5908 53.7207 42.7601 53.79C42.8724 53.8449 42.974 53.9194 43.0601 54.01C43.1409 54.1035 43.2022 54.2123 43.2401 54.33C43.2652 54.4487 43.2652 54.5713 43.2401 54.69C43.2401 57.69 46.8701 61.29 49.8401 61.29C49.9588 61.2655 50.0813 61.2655 50.2001 61.29C50.3177 61.3279 50.4266 61.3891 50.5201 61.47C50.6099 61.5546 50.6814 61.6567 50.7301 61.77C50.7824 61.8828 50.8097 62.0056 50.8101 62.13C50.8086 62.251 50.7813 62.3704 50.7301 62.48C50.6839 62.5947 50.612 62.6973 50.5201 62.78C50.4266 62.8609 50.3177 62.9221 50.2001 62.96C50.0813 62.9845 49.9588 62.9845 49.8401 62.96C46.8401 62.96 43.2401 66.6 43.2401 69.56C43.2357 69.7923 43.1427 70.0141 42.9801 70.18C42.852 70.3555 42.663 70.4768 42.4501 70.52Z" fill="#FABB00"/>
<path d="M42.4501 70.52C42.2171 70.5188 41.9942 70.4253 41.8301 70.26C41.7468 70.1798 41.6809 70.0834 41.6362 69.9768C41.5914 69.8702 41.569 69.7556 41.5701 69.64C41.5701 66.64 37.9301 63.04 34.9601 63.04C34.7431 63.0187 34.5426 62.9149 34.4001 62.75C34.2587 62.5879 34.1808 62.3801 34.1808 62.165C34.1808 61.9499 34.2587 61.7421 34.4001 61.58C34.5456 61.419 34.7445 61.316 34.9601 61.29C37.9601 61.29 41.5701 57.65 41.5701 54.69C41.545 54.5713 41.545 54.4487 41.5701 54.33C41.6074 54.2099 41.6724 54.1002 41.7601 54.01C41.8405 53.9175 41.9393 53.8426 42.0501 53.79C42.1641 53.7427 42.2866 53.7189 42.4101 53.72C42.5336 53.7181 42.6562 53.7419 42.7701 53.79C42.8824 53.8449 42.9839 53.9194 43.0701 54.01C43.1509 54.1035 43.2122 54.2123 43.2501 54.33C43.2752 54.4487 43.2752 54.5713 43.2501 54.69C43.2501 57.69 46.8801 61.29 49.8501 61.29C49.9688 61.2655 50.0913 61.2655 50.2101 61.29C50.3277 61.3279 50.4366 61.3891 50.5301 61.47C50.6199 61.5546 50.6914 61.6567 50.7401 61.77C50.7924 61.8828 50.8197 62.0056 50.8201 62.13C50.8186 62.251 50.7913 62.3704 50.7401 62.48C50.6939 62.5947 50.622 62.6973 50.5301 62.78C50.4366 62.8609 50.3277 62.9221 50.2101 62.96C50.0913 62.9845 49.9688 62.9845 49.8501 62.96C46.8501 62.96 43.2501 66.6 43.2501 69.56C43.2457 69.7923 43.1527 70.0141 42.9901 70.18C42.8596 70.3576 42.6666 70.4791 42.4501 70.52ZM38.1501 62.16C39.9663 63.151 41.4591 64.6437 42.4501 66.46C43.4347 64.6424 44.9247 63.1488 46.7401 62.16C44.9251 61.1752 43.4348 59.685 42.4501 57.87C41.4585 59.6833 39.9656 61.1726 38.1501 62.16Z" fill="#222222"/>
</svg>
