<svg width="80" height="80" viewBox="0 0 80 80" fill="none" xmlns="http://www.w3.org/2000/svg">
<path d="M70.71 21.07C70.8436 21.0684 70.9758 21.0984 71.0957 21.1575C71.2155 21.2165 71.3198 21.303 71.4 21.41C71.51 21.56 82.69 36.64 71.74 57.98C71.669 58.1101 71.5699 58.2228 71.45 58.31C71.3236 58.3905 71.1794 58.4386 71.03 58.45C70.14 58.52 69.27 58.55 68.41 58.55C59.56 58.55 51.76 55.2 45.89 51.55C45.5978 51.8191 45.2589 52.0327 44.89 52.18C43.1587 52.7601 41.3459 53.0606 39.52 53.07C37.4926 53.0828 35.4855 52.667 33.63 51.85C33.3431 51.7234 33.0947 51.5234 32.91 51.27C32.83 51.16 32.77 51.04 32.69 50.92C25.25 55.18 15.37 58.85 9.56999 58.85C8.59784 58.866 7.63024 58.7138 6.70999 58.4C6.59363 58.3474 6.49097 58.2687 6.40999 58.17C6.3291 58.0765 6.26788 57.9677 6.22999 57.85C-0.790007 37 7.70999 22.13 8.09999 21.5C8.18114 21.3671 8.29469 21.257 8.42999 21.18C8.5663 21.1101 8.71684 21.0725 8.86999 21.07H8.93999C16.24 21.78 26.01 27.07 33.19 32.07C33.5794 31.7103 34.0899 31.5104 34.62 31.51H34.85C37.2833 31.77 39.7233 31.91 42.17 31.93C43.01 31.93 43.86 31.93 44.69 31.86H44.81C45.1822 31.8607 45.549 31.9498 45.88 32.12C46.2093 32.296 46.4933 32.5459 46.71 32.85C53.9621 27.707 61.9809 23.7415 70.47 21.1C70.5463 21.09 70.6236 21.09 70.7 21.1L70.71 21.07ZM70.71 19.35C70.4877 19.3521 70.2663 19.3789 70.05 19.43C61.7726 21.9802 53.9251 25.759 46.77 30.64C46.1551 30.3101 45.4678 30.1383 44.77 30.14H44.57C43.8 30.19 42.98 30.21 42.13 30.21C39.7487 30.2113 37.369 30.0912 35 29.85C34.8602 29.84 34.7198 29.84 34.58 29.85C34.1226 29.8493 33.6687 29.9306 33.24 30.09C20.02 21.09 11.43 19.64 9.06999 19.41H8.86999C8.41147 19.4057 7.95999 19.5228 7.56133 19.7494C7.16266 19.9759 6.83101 20.3039 6.59999 20.7C6.20999 21.36 -2.70001 36.95 4.59999 58.5C4.72137 58.8746 4.92657 59.2166 5.19999 59.5C5.48063 59.7862 5.82255 60.005 6.19999 60.14C7.30561 60.5064 8.46546 60.6822 9.62999 60.66C15.98 60.66 25.63 56.93 32.39 53.23C32.5788 53.3593 32.7797 53.4698 32.99 53.56C35.0452 54.4437 37.263 54.8865 39.5 54.86C41.5209 54.8489 43.5268 54.5113 45.44 53.86C45.6108 53.8003 45.7778 53.7302 45.94 53.65C53.39 58.09 60.94 60.34 68.43 60.34C69.348 60.3582 70.2663 60.3215 71.18 60.23C71.6288 60.1978 72.0618 60.0502 72.4367 59.8014C72.8117 59.5526 73.116 59.2111 73.32 58.81C84.74 36.47 72.93 20.52 72.81 20.36C72.5657 20.0445 72.2505 19.791 71.89 19.62C71.5304 19.4398 71.1321 19.3505 70.73 19.36L70.71 19.35Z" fill="white"/>
<path d="M70.71 21.9399C59.5084 25.4374 49.142 31.1923 40.25 38.8499C34.71 33.3699 19.2 22.9999 8.86001 21.9399C8.86001 21.9399 0.0900145 36.9399 7.06001 57.5799C12.75 59.6899 31.64 52.1899 39.06 45.4399C44.28 49.9299 56.42 58.6699 71 57.5799C81.77 36.4899 70.71 21.9399 70.71 21.9399Z" fill="#6C9DEE"/>
<path d="M9.56001 58.81C8.61001 58.836 7.66267 58.6973 6.76001 58.4C6.63742 58.3545 6.52637 58.2825 6.43477 58.1891C6.34316 58.0958 6.27325 57.9834 6.23001 57.86C-0.76999 37.08 7.74001 22.12 8.11001 21.5C8.19721 21.3465 8.32905 21.2231 8.48801 21.1463C8.64698 21.0695 8.82555 21.0429 9.00001 21.07C19.26 22.07 34.38 32.07 40.34 37.67C49.1631 30.1822 59.4032 24.547 70.45 21.1C70.6281 21.0394 70.8208 21.0367 71.0004 21.0924C71.1801 21.1481 71.3375 21.2593 71.45 21.41C73.5584 24.5071 75.0334 27.9906 75.79 31.66C77.11 37.52 77.49 46.85 71.79 57.98C71.7219 58.1126 71.6208 58.2255 71.4964 58.3078C71.3721 58.3901 71.2287 58.4391 71.08 58.45C56.98 59.45 45.21 51.7 39.08 46.6C32.27 52.37 17.28 58.81 9.56001 58.81ZM7.75001 56.88C13.35 58.32 31.27 51.34 38.47 44.79C38.6295 44.6473 38.836 44.5685 39.05 44.5685C39.264 44.5685 39.4705 44.6473 39.63 44.79C45.27 49.63 56.69 57.56 70.42 56.79C79.42 38.79 72.08 25.69 70.36 23.02C59.5035 26.4717 49.456 32.0805 40.82 39.51C40.6593 39.6583 40.4487 39.7406 40.23 39.7406C40.0113 39.7406 39.8007 39.6583 39.64 39.51C34.39 34.29 19.56 24.19 9.35001 22.88C8.00001 25.59 1.93001 39.14 7.75001 56.88Z" fill="#222222"/>
<path d="M33.42 33.2599C32.42 36.2599 29.85 45.54 33.62 50.77C33.7157 50.8934 33.839 50.9927 33.98 51.06C37.3504 52.4598 41.1203 52.5596 44.56 51.34C44.868 51.2334 45.1482 51.0591 45.38 50.83C45.6122 50.5948 45.7897 50.3114 45.9 50C46.9 47.46 49.1 40.1699 46.17 33.5999C46.0451 33.3235 45.8378 33.0924 45.5764 32.9384C45.315 32.7845 45.0124 32.7151 44.71 32.74C41.3726 32.8785 38.0295 32.7615 34.71 32.3899C34.4312 32.3589 34.1505 32.4299 33.92 32.5899C33.6784 32.7461 33.501 32.9839 33.42 33.2599Z" fill="#4583EA"/>
<path d="M39.63 53.06C37.5712 53.0613 35.5324 52.6569 33.63 51.87C33.338 51.7381 33.0836 51.5353 32.89 51.28C28.82 45.63 31.62 35.85 32.57 32.98C32.7211 32.5274 33.0205 32.139 33.4198 31.8777C33.819 31.6164 34.2947 31.4974 34.77 31.54C38.0496 31.9079 41.3528 32.0215 44.65 31.88C45.1219 31.8489 45.5922 31.9604 46 32.2C46.4401 32.4393 46.7909 32.8147 47 33.27C50.19 40.41 47.61 48.14 46.75 50.34C46.5819 50.7592 46.3262 51.1376 46 51.45C45.6757 51.771 45.2823 52.0138 44.85 52.16C43.1741 52.7557 41.4086 53.0601 39.63 53.06ZM34.25 33.54C33.62 35.44 30.65 45.15 34.33 50.26C37.4982 51.5708 41.0399 51.6598 44.27 50.51C44.4547 50.45 44.6226 50.3472 44.76 50.21C44.9025 50.0731 45.012 49.9055 45.08 49.72C45.66 48.25 48.36 40.72 45.37 33.98C45.3241 33.8646 45.2391 33.7691 45.13 33.71C45.0273 33.6496 44.9088 33.6217 44.79 33.63C41.3927 33.7792 37.989 33.6622 34.61 33.28C34.5446 33.2616 34.4754 33.2616 34.41 33.28C34.3252 33.3428 34.2679 33.4359 34.25 33.54Z" fill="#222222"/>
<path d="M47.89 39.85C52.6581 39.3399 57.3769 38.4436 62 37.17C62.5168 36.9745 63.068 36.8861 63.62 36.91C63.8998 36.93 64.166 37.0385 64.38 37.22C64.5988 37.3952 64.7535 37.6378 64.82 37.91C65 38.91 63.82 39.46 62.82 39.66C57.8302 40.587 52.7449 40.8926 47.68 40.57" fill="#4583EA"/>
<path d="M51.54 41.57C50.22 41.57 48.9 41.57 47.59 41.44C47.4748 41.4337 47.362 41.4045 47.2582 41.3541C47.1543 41.3038 47.0616 41.2333 46.9853 41.1467C46.9089 41.0602 46.8506 40.9593 46.8137 40.85C46.7767 40.7407 46.7619 40.6251 46.77 40.51C46.7891 40.3195 46.8699 40.1405 47 40C46.9832 39.8828 46.9902 39.7634 47.0207 39.649C47.0512 39.5345 47.1044 39.4274 47.1772 39.3341C47.25 39.2407 47.341 39.163 47.4445 39.1056C47.5481 39.0482 47.6622 39.0123 47.78 39C52.487 38.4928 57.1455 37.6066 61.71 36.35C62.3137 36.1252 62.9563 36.0232 63.6 36.05C64.0741 36.0828 64.5257 36.2648 64.89 36.57C65.2434 36.8653 65.4952 37.264 65.61 37.71C65.86 39.08 64.8 40.16 62.93 40.54C59.1728 41.2312 55.3602 41.576 51.54 41.57ZM63.4 37.78C63.0138 37.7817 62.631 37.8528 62.27 37.99C59.76 38.68 57.27 39.27 54.7 39.74C57.3578 39.6019 60.0036 39.2879 62.62 38.8C63.37 38.65 63.96 38.31 63.92 38.06C63.891 37.9965 63.8462 37.9414 63.79 37.9C63.7165 37.8301 63.6211 37.7877 63.52 37.78H63.4Z" fill="#222222"/>
<path d="M48 42.17C52.3357 44.7129 57.3343 45.8972 62.35 45.57C63.07 45.51 65.28 45.06 64.63 43.85C64.29 43.2 62.82 43.36 62.23 43.36C57.3596 43.5089 52.4971 42.8707 47.83 41.47" fill="#4583EA"/>
<path d="M60.74 46.5C56.1186 46.5041 51.5807 45.2678 47.6 42.92C47.4437 42.8312 47.3191 42.6957 47.2437 42.5325C47.1684 42.3693 47.1461 42.1865 47.18 42.01C47.0681 41.8631 47.0052 41.6847 47.0003 41.5C46.9953 41.3154 47.0487 41.1339 47.1526 40.9812C47.2566 40.8285 47.406 40.7125 47.5796 40.6494C47.7532 40.5864 47.9423 40.5796 48.12 40.63C52.6955 42.0068 57.4642 42.6316 62.24 42.48H62.55C63.43 42.48 64.9 42.4 65.45 43.48C65.5849 43.7196 65.6558 43.99 65.6558 44.265C65.6558 44.54 65.5849 44.8104 65.45 45.05C64.8 46.25 62.68 46.46 62.45 46.48C61.89 46.48 61.31 46.5 60.74 46.5ZM53.65 43.69C56.4596 44.5429 59.4001 44.8816 62.33 44.69C62.8459 44.6471 63.3485 44.5044 63.81 44.27C63.413 44.2104 63.0106 44.1936 62.61 44.22H62.27C59.3864 44.314 56.5004 44.1366 53.65 43.69Z" fill="#222222"/>
<path d="M30.85 40.52C26.3065 40.7491 21.7517 40.4708 17.27 39.69C16.35 39.56 14.68 39.5 14.8 38.28C14.98 36.61 19.11 37.61 20.11 37.81C23.7283 38.7059 27.4035 39.3541 31.11 39.75" fill="#4583EA"/>
<path d="M27.75 41.47C24.1868 41.4687 20.6304 41.1609 17.12 40.55H16.85C15.92 40.43 13.74 40.16 13.93 38.22C13.9553 37.978 14.0317 37.7441 14.1541 37.5338C14.2765 37.3235 14.4421 37.1415 14.64 37C15.77 36.19 17.9 36.49 20.03 36.94L20.28 36.99C23.8737 37.8633 27.5219 38.4947 31.2 38.88C31.3178 38.8922 31.4319 38.9281 31.5354 38.9855C31.639 39.0429 31.7299 39.1206 31.8028 39.214C31.8756 39.3074 31.9288 39.4145 31.9593 39.5289C31.9897 39.6434 31.9968 39.7628 31.98 39.88C31.9609 40.0853 31.8686 40.277 31.72 40.42C31.7152 40.4498 31.7152 40.4802 31.72 40.51C31.7267 40.6251 31.7105 40.7404 31.6723 40.8491C31.6341 40.9579 31.5747 41.058 31.4975 41.1436C31.4202 41.2292 31.3268 41.2986 31.2225 41.3478C31.1182 41.3969 31.0052 41.4249 30.89 41.43C29.85 41.45 28.8 41.47 27.75 41.47ZM16.63 38.2C15.9 38.2 15.7 38.34 15.63 38.39C15.78 38.63 16.69 38.74 17.03 38.78H17.36C19.6525 39.1808 21.9664 39.4479 24.29 39.58C22.8 39.3 21.29 38.98 19.87 38.58H19.64C18.651 38.3583 17.6431 38.231 16.63 38.2Z" fill="#222222"/>
<path d="M30.85 42.73C26.4166 44.6314 21.6706 45.6993 16.85 45.88C13.85 45.88 12.4 44.2 15.1 43.88C20.41 43.24 25.54 43.53 30.71 41.88" fill="#4583EA"/>
<path d="M16.88 46.75C14.58 46.75 12.88 45.89 12.8 44.75C12.8 44.32 12.94 43.29 15 43.05C16.71 42.84 18.42 42.73 20.07 42.62C23.5815 42.5238 27.0664 41.9794 30.44 41C30.549 40.9641 30.664 40.9502 30.7784 40.959C30.8927 40.9677 31.0043 40.9991 31.1065 41.0511C31.2087 41.1032 31.2997 41.1749 31.3741 41.2622C31.4485 41.3496 31.5049 41.4508 31.54 41.56C31.6152 41.7495 31.6152 41.9605 31.54 42.15C31.5979 42.2118 31.6452 42.2827 31.68 42.36C31.7703 42.5736 31.7727 42.8142 31.6866 43.0296C31.6004 43.245 31.4327 43.4176 31.22 43.51C26.6883 45.464 21.832 46.556 16.9 46.73L16.88 46.75ZM15.13 44.75C15.6874 44.9189 16.2677 44.9999 16.85 44.99C19.3067 44.8943 21.7483 44.5594 24.14 43.99C22.81 44.13 21.49 44.21 20.14 44.3C18.51 44.41 16.83 44.52 15.14 44.72L15.13 44.75Z" fill="#222222"/>
<path d="M12.71 27.6401C12.901 27.6401 13.0841 27.5642 13.2191 27.4292C13.3542 27.2941 13.43 27.111 13.43 26.9201C13.4283 26.7293 13.3531 26.5466 13.22 26.4101C13.0858 26.2805 12.9065 26.2081 12.72 26.2081C12.5335 26.2081 12.3542 26.2805 12.22 26.4101C12.0869 26.5466 12.0117 26.7293 12.01 26.9201C12.01 27.111 12.0859 27.2941 12.2209 27.4292C12.3559 27.5642 12.5391 27.6401 12.73 27.6401H12.71Z" fill="#4583EA"/>
<path d="M15.48 32.6C15.6552 32.5804 15.8162 32.4945 15.93 32.36C16.0517 32.2317 16.1195 32.0617 16.1195 31.885C16.1195 31.7082 16.0517 31.5382 15.93 31.41C15.8808 31.3357 15.8139 31.2748 15.7354 31.2326C15.6568 31.1905 15.5691 31.1685 15.48 31.1685C15.3909 31.1685 15.3032 31.1905 15.2247 31.2326C15.1461 31.2748 15.0793 31.3357 15.03 31.41C14.9083 31.5382 14.8405 31.7082 14.8405 31.885C14.8405 32.0617 14.9083 32.2317 15.03 32.36C15.1439 32.4945 15.3049 32.5804 15.48 32.6Z" fill="#4583EA"/>
<path d="M21.94 32.44C22.1309 32.44 22.3141 32.3641 22.4491 32.2291C22.5841 32.0941 22.66 31.9109 22.66 31.72C22.6583 31.5293 22.5831 31.3466 22.45 31.21C22.3158 31.0804 22.1365 31.0081 21.95 31.0081C21.7635 31.0081 21.5842 31.0804 21.45 31.21C21.3169 31.3466 21.2417 31.5293 21.24 31.72C21.24 31.9109 21.3158 32.0941 21.4509 32.2291C21.5859 32.3641 21.769 32.44 21.96 32.44H21.94Z" fill="#4583EA"/>
<path d="M29.05 35.58C29.2251 35.5604 29.3862 35.4745 29.5 35.34C29.5678 35.2756 29.6217 35.198 29.6586 35.112C29.6955 35.0261 29.7145 34.9335 29.7145 34.84C29.7145 34.7465 29.6955 34.6539 29.6586 34.568C29.6217 34.482 29.5678 34.4045 29.5 34.34C29.4507 34.2658 29.3839 34.2048 29.3054 34.1627C29.2268 34.1206 29.1391 34.0985 29.05 34.0985C28.9609 34.0985 28.8732 34.1206 28.7946 34.1627C28.7161 34.2048 28.6493 34.2658 28.6 34.34C28.5322 34.4045 28.4783 34.482 28.4414 34.568C28.4045 34.6539 28.3855 34.7465 28.3855 34.84C28.3855 34.9335 28.4045 35.0261 28.4414 35.112C28.4783 35.198 28.5322 35.2756 28.6 35.34C28.7138 35.4745 28.8749 35.5604 29.05 35.58Z" fill="#4583EA"/>
<path d="M8.85997 32.7701C9.05093 32.7701 9.23406 32.6942 9.36909 32.5592C9.50412 32.4242 9.57997 32.241 9.57997 32.0501C9.57831 31.8594 9.50308 31.6766 9.36997 31.5401C9.23576 31.4105 9.0565 31.3381 8.86997 31.3381C8.68344 31.3381 8.50419 31.4105 8.36997 31.5401C8.23687 31.6766 8.16164 31.8594 8.15997 32.0501C8.15997 32.241 8.23583 32.4242 8.37086 32.5592C8.50588 32.6942 8.68902 32.7701 8.87997 32.7701H8.85997Z" fill="#4583EA"/>
<path d="M9.18999 39.06C9.28454 39.06 9.37817 39.0414 9.46552 39.0052C9.55288 38.969 9.63225 38.916 9.69911 38.8491C9.76597 38.7822 9.819 38.7029 9.85518 38.6155C9.89137 38.5282 9.90999 38.4345 9.90999 38.34C9.90833 38.1493 9.83309 37.9666 9.69999 37.83C9.56577 37.7004 9.38652 37.6281 9.19999 37.6281C9.01346 37.6281 8.83421 37.7004 8.69999 37.83C8.56689 37.9666 8.49165 38.1493 8.48999 38.34C8.48999 38.5309 8.56585 38.7141 8.70087 38.8491C8.8359 38.9841 9.01903 39.06 9.20999 39.06H9.18999Z" fill="#4583EA"/>
<path d="M13 41.85C13.1752 41.8304 13.3362 41.7445 13.45 41.61C13.5178 41.5455 13.5717 41.468 13.6086 41.382C13.6455 41.2961 13.6645 41.2035 13.6645 41.11C13.6645 41.0164 13.6455 40.9239 13.6086 40.8379C13.5717 40.752 13.5178 40.6744 13.45 40.61C13.4008 40.5357 13.3339 40.4748 13.2554 40.4327C13.1768 40.3905 13.0891 40.3685 13 40.3685C12.9109 40.3685 12.8232 40.3905 12.7447 40.4327C12.6661 40.4748 12.5993 40.5357 12.55 40.61C12.4822 40.6744 12.4283 40.752 12.3914 40.8379C12.3545 40.9239 12.3355 41.0164 12.3355 41.11C12.3355 41.2035 12.3545 41.2961 12.3914 41.382C12.4283 41.468 12.4822 41.5455 12.55 41.61C12.6639 41.7445 12.8249 41.8304 13 41.85Z" fill="#4583EA"/>
<path d="M9.52001 50.15C9.71096 50.15 9.8941 50.0741 10.0291 49.9391C10.1642 49.8041 10.24 49.621 10.24 49.43C10.2383 49.2393 10.1631 49.0566 10.03 48.92C9.89579 48.7905 9.71654 48.7181 9.53001 48.7181C9.34348 48.7181 9.16423 48.7905 9.03001 48.92C8.8969 49.0566 8.82167 49.2393 8.82001 49.43C8.82001 49.621 8.89586 49.8041 9.03089 49.9391C9.16592 50.0741 9.34905 50.15 9.54001 50.15H9.52001Z" fill="#4583EA"/>
<path d="M9.19001 56.6C9.36516 56.5804 9.52617 56.4945 9.64001 56.36C9.70779 56.2955 9.76175 56.218 9.79862 56.132C9.8355 56.0461 9.85451 55.9535 9.85451 55.86C9.85451 55.7665 9.8355 55.6739 9.79862 55.588C9.76175 55.502 9.70779 55.4245 9.64001 55.36C9.58506 55.2917 9.51687 55.2353 9.43954 55.194C9.3622 55.1528 9.27733 55.1276 9.19001 55.12C9.1027 55.1276 9.01782 55.1528 8.94049 55.194C8.86316 55.2353 8.79497 55.2917 8.74001 55.36C8.67224 55.4245 8.61828 55.502 8.5814 55.588C8.54453 55.6739 8.52551 55.7665 8.52551 55.86C8.52551 55.9535 8.54453 56.0461 8.5814 56.132C8.61828 56.218 8.67224 56.2955 8.74001 56.36C8.85386 56.4945 9.01487 56.5804 9.19001 56.6Z" fill="#4583EA"/>
<path d="M16 51.47C16.1751 51.4504 16.3362 51.3645 16.45 51.23C16.5717 51.1018 16.6395 50.9318 16.6395 50.755C16.6395 50.5783 16.5717 50.4082 16.45 50.28C16.4007 50.2058 16.3339 50.1448 16.2554 50.1027C16.1768 50.0606 16.0891 50.0385 16 50.0385C15.9109 50.0385 15.8232 50.0606 15.7446 50.1027C15.6661 50.1448 15.5993 50.2058 15.55 50.28C15.4283 50.4082 15.3605 50.5783 15.3605 50.755C15.3605 50.9318 15.4283 51.1018 15.55 51.23C15.6638 51.3645 15.8249 51.4504 16 51.47Z" fill="#4583EA"/>
<path d="M25.71 51.14C25.8851 51.1204 26.0461 51.0345 26.16 50.9C26.2817 50.7718 26.3495 50.6018 26.3495 50.425C26.3495 50.2482 26.2817 50.0782 26.16 49.95C26.1107 49.8757 26.0439 49.8148 25.9653 49.7727C25.8868 49.7305 25.7991 49.7085 25.71 49.7085C25.6209 49.7085 25.5332 49.7305 25.4546 49.7727C25.3761 49.8148 25.3092 49.8757 25.26 49.95C25.1383 50.0782 25.0705 50.2482 25.0705 50.425C25.0705 50.6018 25.1383 50.7718 25.26 50.9C25.3738 51.0345 25.5348 51.1204 25.71 51.14Z" fill="#4583EA"/>
<path d="M21.6 49C21.7751 48.9804 21.9361 48.8945 22.05 48.76C22.1178 48.6955 22.1717 48.618 22.2086 48.532C22.2455 48.4461 22.2645 48.3535 22.2645 48.26C22.2645 48.1665 22.2455 48.0739 22.2086 47.988C22.1717 47.902 22.1178 47.8244 22.05 47.76C22.0007 47.6857 21.9339 47.6248 21.8553 47.5827C21.7768 47.5405 21.6891 47.5185 21.6 47.5185C21.5109 47.5185 21.4231 47.5405 21.3446 47.5827C21.2661 47.6248 21.1992 47.6857 21.15 47.76C21.0822 47.8244 21.0282 47.902 20.9914 47.988C20.9545 48.0739 20.9355 48.1665 20.9355 48.26C20.9355 48.3535 20.9545 48.4461 20.9914 48.532C21.0282 48.618 21.0822 48.6955 21.15 48.76C21.2638 48.8945 21.4248 48.9804 21.6 49Z" fill="#4583EA"/>
<path d="M52.06 35.58C52.2352 35.5604 52.3962 35.4745 52.51 35.34C52.5778 35.2756 52.6317 35.198 52.6686 35.112C52.7055 35.0261 52.7245 34.9335 52.7245 34.84C52.7245 34.7465 52.7055 34.6539 52.6686 34.568C52.6317 34.482 52.5778 34.4045 52.51 34.34C52.4607 34.2658 52.3939 34.2048 52.3154 34.1627C52.2368 34.1206 52.1491 34.0985 52.06 34.0985C51.9709 34.0985 51.8832 34.1206 51.8047 34.1627C51.7261 34.2048 51.6593 34.2658 51.61 34.34C51.5422 34.4045 51.4883 34.482 51.4514 34.568C51.4145 34.6539 51.3955 34.7465 51.3955 34.84C51.3955 34.9335 51.4145 35.0261 51.4514 35.112C51.4883 35.198 51.5422 35.2756 51.61 35.34C51.7239 35.4745 51.8849 35.5604 52.06 35.58Z" fill="#4583EA"/>
<path d="M56.71 31.9401C56.8851 31.9205 57.0461 31.8346 57.16 31.7001C57.2817 31.5718 57.3495 31.4018 57.3495 31.225C57.3495 31.0483 57.2817 30.8783 57.16 30.75C57.1107 30.6758 57.0439 30.6149 56.9653 30.5727C56.8868 30.5306 56.7991 30.5085 56.71 30.5085C56.6209 30.5085 56.5332 30.5306 56.4546 30.5727C56.3761 30.6149 56.3092 30.6758 56.26 30.75C56.1383 30.8783 56.0705 31.0483 56.0705 31.225C56.0705 31.4018 56.1383 31.5718 56.26 31.7001C56.3738 31.8346 56.5348 31.9205 56.71 31.9401Z" fill="#4583EA"/>
<path d="M66.3 29.13C66.491 29.13 66.6741 29.0542 66.8091 28.9192C66.9442 28.7841 67.02 28.601 67.02 28.41C67.0183 28.2193 66.9431 28.0366 66.81 27.9C66.6758 27.7705 66.4965 27.6981 66.31 27.6981C66.1235 27.6981 65.9442 27.7705 65.81 27.9C65.6769 28.0366 65.6017 28.2193 65.6 28.41C65.6 28.601 65.6759 28.7841 65.8109 28.9192C65.9459 29.0542 66.1291 29.13 66.32 29.13H66.3Z" fill="#4583EA"/>
<path d="M72.42 36.08C72.611 36.08 72.7941 36.0041 72.9291 35.8691C73.0641 35.7341 73.14 35.551 73.14 35.36C73.1383 35.1693 73.0631 34.9866 72.93 34.85C72.7958 34.7205 72.6165 34.6481 72.43 34.6481C72.2435 34.6481 72.0642 34.7205 71.93 34.85C71.7969 34.9866 71.7217 35.1693 71.72 35.36C71.72 35.551 71.7959 35.7341 71.9309 35.8691C72.0659 36.0041 72.249 36.08 72.44 36.08H72.42Z" fill="#4583EA"/>
<path d="M63.48 34.09C63.6551 34.0704 63.8161 33.9846 63.93 33.85C63.9978 33.7856 64.0517 33.708 64.0886 33.6221C64.1255 33.5361 64.1445 33.4436 64.1445 33.35C64.1445 33.2565 64.1255 33.1639 64.0886 33.078C64.0517 32.992 63.9978 32.9145 63.93 32.85C63.8807 32.7758 63.8139 32.7148 63.7353 32.6727C63.6568 32.6306 63.5691 32.6085 63.48 32.6085C63.3909 32.6085 63.3032 32.6306 63.2246 32.6727C63.1461 32.7148 63.0792 32.7758 63.03 32.85C62.9622 32.9145 62.9083 32.992 62.8714 33.078C62.8345 33.1639 62.8155 33.2565 62.8155 33.35C62.8155 33.4436 62.8345 33.5361 62.8714 33.6221C62.9083 33.708 62.9622 33.7856 63.03 33.85C63.1438 33.9846 63.3048 34.0704 63.48 34.09Z" fill="#4583EA"/>
<path d="M69.94 41.71C70.131 41.71 70.3141 41.6341 70.4491 41.4991C70.5841 41.3641 70.66 41.181 70.66 40.99C70.6583 40.7993 70.5831 40.6166 70.45 40.48C70.3158 40.3505 70.1365 40.2781 69.95 40.2781C69.7635 40.2781 69.5842 40.3505 69.45 40.48C69.3169 40.6166 69.2417 40.7993 69.24 40.99C69.24 41.181 69.3158 41.3641 69.4509 41.4991C69.5859 41.6341 69.769 41.71 69.96 41.71H69.94Z" fill="#4583EA"/>
<path d="M69.94 54C70.131 54 70.3141 53.9241 70.4491 53.7891C70.5841 53.6541 70.66 53.4709 70.66 53.28C70.6583 53.0893 70.5831 52.9066 70.45 52.77C70.3158 52.6404 70.1365 52.5681 69.95 52.5681C69.7635 52.5681 69.5842 52.6404 69.45 52.77C69.3169 52.9066 69.2417 53.0893 69.24 53.28C69.24 53.4709 69.3158 53.6541 69.4509 53.7891C69.5859 53.9241 69.769 54 69.96 54H69.94Z" fill="#4583EA"/>
<path d="M51.23 50.85C51.4051 50.8304 51.5661 50.7445 51.68 50.61C51.7478 50.5455 51.8017 50.468 51.8386 50.382C51.8755 50.2961 51.8945 50.2035 51.8945 50.11C51.8945 50.0164 51.8755 49.9239 51.8386 49.8379C51.8017 49.752 51.7478 49.6744 51.68 49.61C51.6307 49.5357 51.5639 49.4748 51.4853 49.4327C51.4068 49.3905 51.3191 49.3685 51.23 49.3685C51.1409 49.3685 51.0532 49.3905 50.9746 49.4327C50.8961 49.4748 50.8292 49.5357 50.78 49.61C50.7122 49.6744 50.6583 49.752 50.6214 49.8379C50.5845 49.9239 50.5655 50.0164 50.5655 50.11C50.5655 50.2035 50.5845 50.2961 50.6214 50.382C50.6583 50.468 50.7122 50.5455 50.78 50.61C50.8938 50.7445 51.0548 50.8304 51.23 50.85Z" fill="#4583EA"/>
<path d="M57.85 50.48C58.0251 50.4604 58.1861 50.3745 58.3 50.24C58.3678 50.1755 58.4217 50.098 58.4586 50.012C58.4955 49.9261 58.5145 49.8335 58.5145 49.74C58.5145 49.6465 58.4955 49.5539 58.4586 49.4679C58.4217 49.382 58.3678 49.3044 58.3 49.24C58.2507 49.1657 58.1839 49.1048 58.1053 49.0627C58.0268 49.0205 57.9391 48.9985 57.85 48.9985C57.7609 48.9985 57.6731 49.0205 57.5946 49.0627C57.5161 49.1048 57.4492 49.1657 57.4 49.24C57.3322 49.3044 57.2782 49.382 57.2414 49.4679C57.2045 49.5539 57.1855 49.6465 57.1855 49.74C57.1855 49.8335 57.2045 49.9261 57.2414 50.012C57.2782 50.098 57.3322 50.1755 57.4 50.24C57.5138 50.3745 57.6748 50.4604 57.85 50.48Z" fill="#4583EA"/>
<path d="M65 50.65C65.1909 50.65 65.3741 50.5741 65.5091 50.4391C65.6441 50.3041 65.72 50.121 65.72 49.93C65.7183 49.7393 65.6431 49.5566 65.51 49.42C65.3758 49.2905 65.1965 49.2181 65.01 49.2181C64.8235 49.2181 64.6442 49.2905 64.51 49.42C64.3769 49.5566 64.3017 49.7393 64.3 49.93C64.3 50.121 64.3758 50.3041 64.5109 50.4391C64.6459 50.5741 64.829 50.65 65.02 50.65H65Z" fill="#4583EA"/>
<path d="M38.65 37.0701C38.8251 37.0505 38.9861 36.9646 39.1 36.8301C39.2217 36.7018 39.2895 36.5318 39.2895 36.3551C39.2895 36.1783 39.2217 36.0083 39.1 35.8801C39.0507 35.8058 38.9839 35.7449 38.9053 35.7027C38.8268 35.6606 38.7391 35.6385 38.65 35.6385C38.5609 35.6385 38.4732 35.6606 38.3946 35.7027C38.3161 35.7449 38.2493 35.8058 38.2 35.8801C38.0783 36.0083 38.0105 36.1783 38.0105 36.3551C38.0105 36.5318 38.0783 36.7018 38.2 36.8301C38.3138 36.9646 38.4748 37.0505 38.65 37.0701Z" fill="#3C6BB8"/>
<path d="M43.78 41.85C43.9552 41.8304 44.1162 41.7445 44.23 41.61C44.2978 41.5455 44.3517 41.468 44.3886 41.382C44.4255 41.2961 44.4445 41.2035 44.4445 41.11C44.4445 41.0164 44.4255 40.9239 44.3886 40.8379C44.3517 40.752 44.2978 40.6744 44.23 40.61C44.1807 40.5357 44.1139 40.4748 44.0354 40.4327C43.9568 40.3905 43.8691 40.3685 43.78 40.3685C43.6909 40.3685 43.6032 40.3905 43.5247 40.4327C43.4461 40.4748 43.3793 40.5357 43.33 40.61C43.2622 40.6744 43.2083 40.752 43.1714 40.8379C43.1345 40.9239 43.1155 41.0164 43.1155 41.11C43.1155 41.2035 43.1345 41.2961 43.1714 41.382C43.2083 41.468 43.2622 41.5455 43.33 41.61C43.4439 41.7445 43.6049 41.8304 43.78 41.85Z" fill="#3C6BB8"/>
<path d="M42.63 47.5C42.8052 47.4804 42.9662 47.3945 43.08 47.26C43.2017 47.1318 43.2695 46.9617 43.2695 46.785C43.2695 46.6082 43.2017 46.4382 43.08 46.31C43.0307 46.2357 42.9639 46.1748 42.8854 46.1327C42.8068 46.0905 42.7191 46.0685 42.63 46.0685C42.5409 46.0685 42.4532 46.0905 42.3746 46.1327C42.2961 46.1748 42.2293 46.2357 42.18 46.31C42.0583 46.4382 41.9905 46.6082 41.9905 46.785C41.9905 46.9617 42.0583 47.1318 42.18 47.26C42.2938 47.3945 42.4549 47.4804 42.63 47.5Z" fill="#3C6BB8"/>
<path d="M36 43.36C36.1751 43.3404 36.3362 43.2545 36.45 43.12C36.5717 42.9918 36.6395 42.8217 36.6395 42.645C36.6395 42.4682 36.5717 42.2982 36.45 42.17C36.4007 42.0957 36.3339 42.0348 36.2554 41.9927C36.1768 41.9505 36.0891 41.9285 36 41.9285C35.9109 41.9285 35.8232 41.9505 35.7446 41.9927C35.6661 42.0348 35.5993 42.0957 35.55 42.17C35.4283 42.2982 35.3605 42.4682 35.3605 42.645C35.3605 42.8217 35.4283 42.9918 35.55 43.12C35.6638 43.2545 35.8249 43.3404 36 43.36Z" fill="#3C6BB8"/>
<path d="M37.16 49.65C37.3351 49.6304 37.4962 49.5445 37.61 49.41C37.7317 49.2818 37.7995 49.1118 37.7995 48.935C37.7995 48.7582 37.7317 48.5882 37.61 48.46C37.5607 48.3858 37.4939 48.3248 37.4154 48.2827C37.3368 48.2406 37.2491 48.2185 37.16 48.2185C37.0709 48.2185 36.9832 48.2406 36.9046 48.2827C36.8261 48.3248 36.7593 48.3858 36.71 48.46C36.5883 48.5882 36.5205 48.7582 36.5205 48.935C36.5205 49.1118 36.5883 49.2818 36.71 49.41C36.8238 49.5445 36.9849 49.6304 37.16 49.65Z" fill="#3C6BB8"/>
</svg>
