<?xml version="1.0" encoding="UTF-8"?>
<svg width="495px" height="148px" viewBox="0 0 495 148" version="1.1" xmlns="http://www.w3.org/2000/svg" xmlns:xlink="http://www.w3.org/1999/xlink">
    <!-- Generator: Sketch 53 (72520) - https://sketchapp.com -->
    <title>btn-appstore_es</title>
    <desc>Created with Sketch.</desc>
    <g id="Page-1" stroke="none" stroke-width="1" fill="none" fill-rule="evenodd">
        <g id="btn-appstore_es" fill-rule="nonzero">
            <g id="Group">
                <g id="Path">
                    <path d="M455.546884,0.8 L40.3658754,0.8 C38.9,0.8 37.321365,0.8 35.8554896,0.8 C34.6151335,0.8 33.3747774,0.8 32.0216617,0.8 C29.2026706,0.8 26.4964392,1 23.7902077,1.4 C21.0839763,1.8 18.3777448,2.6 15.8970326,3.7 C13.4163205,4.9 11.1611276,6.4 9.24421365,8.1 C7.3272997,9.8 5.63590504,11.8 4.39554896,14 C3.15519288,16.2 2.25311573,18.5 1.80207715,21 C1.35103858,23.4 1.12551929,25.9 1.01275964,28.3 C1.01275964,29.4 1.01275964,30.5 0.9,31.7 L0.9,116.3 C0.9,117.4 0.9,118.5 1.01275964,119.7 C1.01275964,122.2 1.23827893,124.6 1.80207715,127 C2.25311573,129.4 3.15519288,131.8 4.39554896,134 C5.63590504,136.2 7.3272997,138.2 9.24421365,139.9 C11.1611276,141.6 13.4163205,143.1 15.8970326,144.2 C18.3777448,145.3 20.9712166,146.1 23.7902077,146.5 C26.4964392,146.9 29.3154303,147.1 32.0216617,147.1 C33.2620178,147.1 34.5023739,147.1 35.8554896,147.1 C37.321365,147.1 38.9,147.1 40.3658754,147.1 L455.546884,147.1 C457.01276,147.1 458.591395,147.1 460.05727,147.1 C461.297626,147.1 462.650742,147.1 463.891098,147.1 C466.710089,147.1 469.41632,146.9 472.122552,146.5 C474.828783,146.1 477.535015,145.3 480.015727,144.2 C482.496439,143.1 484.751632,141.6 486.668546,139.9 C488.58546,138.2 490.276855,136.2 491.517211,134 C492.757567,131.8 493.659644,129.5 494.110682,127 C494.561721,124.6 494.78724,122.1 494.9,119.7 C494.9,118.6 494.9,117.5 494.9,116.3 C494.9,115 494.9,113.6 494.9,112.3 L494.9,35.7 C494.9,34.4 494.9,33 494.9,31.7 C494.9,30.6 494.9,29.5 494.9,28.3 C494.9,25.8 494.561721,23.4 494.110682,21 C493.659644,18.6 492.757567,16.2 491.517211,14 C488.923739,9.6 484.977151,6 480.015727,3.8 C477.535015,2.7 474.828783,1.9 472.122552,1.5 C469.41632,1.1 466.597329,0.9 463.891098,0.9 C462.650742,0.9 461.297626,0.9 460.05727,0.9 C458.591395,0.8 457.01276,0.8 455.546884,0.8 L455.546884,0.8 Z" fill="#A6A6A6"></path>
                    <path d="M35.4628042,144 C34.221321,144 32.9798378,144 31.7383546,144 C29.1425261,144 26.5466976,143.8 24.0637312,143.4 C21.6936269,143 19.3235226,142.4 17.1791425,141.4 C15.0347625,140.4 13.1161066,139.2 11.423175,137.7 C9.73024334,136.2 8.26303592,134.5 7.24727694,132.6 C6.11865585,130.7 5.4414832,128.6 4.99003476,126.5 C4.53858633,124.2 4.31286211,121.9 4.31286211,119.6 C4.31286211,118.8 4.2,116.3 4.2,116.3 L4.2,31.7 C4.2,31.7 4.2,29.2 4.31286211,28.4 C4.31286211,26.1 4.53858633,23.8 4.99003476,21.5 C5.32862109,19.4 6.11865585,17.3 7.24727694,15.4 C8.37589803,13.5 9.73024334,11.8 11.423175,10.3 C13.1161066,8.8 15.0347625,7.5 17.1791425,6.6 C19.3235226,5.6 21.5807648,5 24.0637312,4.6 C26.5466976,4.3 29.1425261,4.1 31.7383546,4 L35.4628042,4 L460.050058,4 L463.774508,4 C466.370336,4 468.966165,4.2 471.449131,4.6 C473.819235,5 476.18934,5.6 478.33372,6.6 C482.62248,8.6 486.121205,11.7 488.265585,15.5 C489.394206,17.4 490.071379,19.4 490.522827,21.5 C490.974276,23.8 491.2,26.1 491.2,28.4 C491.2,29.4 491.2,30.6 491.2,31.7 C491.2,33.1 491.2,34.4 491.2,35.7 L491.2,112.3 C491.2,113.6 491.2,114.9 491.2,116.2 C491.2,117.4 491.2,118.5 491.2,119.6 C491.2,121.9 490.861414,124.1 490.522827,126.4 C490.184241,128.5 489.394206,130.6 488.265585,132.5 C487.136964,134.4 485.782619,136.1 484.089687,137.6 C482.396756,139.1 480.4781,140.4 478.33372,141.3 C476.18934,142.3 473.819235,143 471.449131,143.3 C468.853302,143.7 466.370336,143.9 463.774508,143.9 C462.533024,143.9 461.291541,143.9 460.050058,143.9 L455.535574,143.9 L35.4628042,144 Z" fill="#000000"></path>
                </g>
                <g id="_Group__1_" transform="translate(65.000000, 30.000000)" fill="#FFFFFF">
                    <g id="_Group_3_1_" transform="translate(0.000000, 2.000000)">
                        <path d="M54.7,43.1 C54.8,36.9 58,31.2 63.3,27.9 C59.9,23.1 54.5,20.2 48.7,20 C42.6,19.4 36.6,23.7 33.5,23.7 C30.3,23.7 25.5,20.1 20.3,20.2 C13.5,20.4 7.3,24.2 3.9,30.2 C-3.2,42.5 2.1,60.5 8.9,70.4 C12.3,75.3 16.3,80.7 21.4,80.5 C26.5,80.3 28.4,77.3 34.5,77.3 C40.6,77.3 42.4,80.5 47.6,80.4 C53,80.3 56.5,75.5 59.8,70.6 C62.2,67.1 64.1,63.3 65.4,59.3 C58.9,56.5 54.7,50.1 54.7,43.1 Z" id="_Path__1_"></path>
                        <path d="M44.7,13.5 C47.7,9.9 49.1,5.4 48.8,0.7 C44.3,1.2 40.1,3.3 37.1,6.8 C34.1,10.2 32.6,14.6 32.9,19.1 C37.4,19.1 41.8,17.1 44.7,13.5 Z" id="_Path_2_1_"></path>
                    </g>
                    <g id="Group" transform="translate(90.000000, 36.000000)">
                        <path d="M28.8,34.1 L11.5,34.1 L7.3,46.4 L0,46.4 L16.4,1 L24,1 L40.4,46.5 L33,46.5 L28.8,34.1 Z M13.3,28.5 L27,28.5 L20.2,8.6 L20,8.6 L13.3,28.5 Z" id="Shape"></path>
                        <path d="M75.9,29.9 C75.9,40.2 70.4,46.8 62.1,46.8 C57.8,47 53.8,44.8 51.7,41 L51.5,41 L51.5,57.4 L44.7,57.4 L44.7,13.3 L51.3,13.3 L51.3,18.8 L51.4,18.8 C53.6,15.1 57.6,12.8 62,12.9 C70.4,12.9 75.9,19.6 75.9,29.9 Z M68.9,29.9 C68.9,23.2 65.4,18.8 60.1,18.8 C54.9,18.8 51.4,23.3 51.4,29.9 C51.4,36.6 54.9,41 60.1,41 C65.4,41 68.9,36.6 68.9,29.9 Z" id="Shape"></path>
                        <path d="M112.4,29.9 C112.4,40.2 106.9,46.8 98.6,46.8 C94.3,47 90.3,44.8 88.2,41 L88,41 L88,57.4 L81.2,57.4 L81.2,13.3 L87.8,13.3 L87.8,18.8 L87.9,18.8 C90.1,15.1 94.1,12.8 98.5,12.9 C106.8,12.9 112.4,19.6 112.4,29.9 Z M105.4,29.9 C105.4,23.2 101.9,18.8 96.6,18.8 C91.4,18.8 87.9,23.3 87.9,29.9 C87.9,36.6 91.4,41 96.6,41 C101.9,41 105.4,36.6 105.4,29.9 L105.4,29.9 Z" id="Shape"></path>
                        <path d="M136.5,33.8 C137,38.3 141.4,41.3 147.4,41.3 C153.1,41.3 157.3,38.3 157.3,34.3 C157.3,30.8 154.8,28.7 148.9,27.2 L143,25.8 C134.7,23.8 130.8,19.9 130.8,13.5 C130.8,5.7 137.6,0.3 147.3,0.3 C156.9,0.3 163.5,5.7 163.7,13.5 L156.8,13.5 C156.4,9 152.6,6.2 147.2,6.2 C141.8,6.2 138,9 138,13 C138,16.2 140.4,18.1 146.3,19.6 L151.3,20.8 C160.6,23 164.5,26.8 164.5,33.4 C164.5,41.9 157.7,47.2 147,47.2 C136.9,47.2 130.1,42 129.7,33.8 L136.5,33.8 Z" id="Path"></path>
                        <path d="M179.1,5.4 L179.1,13.2 L185.4,13.2 L185.4,18.6 L179.1,18.6 L179.1,36.9 C179.1,39.7 180.4,41.1 183.1,41.1 C183.8,41.1 184.6,41 185.3,40.9 L185.3,46.3 C184.1,46.5 182.8,46.6 181.5,46.6 C174.8,46.6 172.2,44.1 172.2,37.7 L172.2,18.7 L167.4,18.7 L167.4,13.3 L172.2,13.3 L172.2,5.5 L179.1,5.5 L179.1,5.4 Z" id="Path"></path>
                        <path d="M189,29.9 C189,19.5 195.1,12.9 204.7,12.9 C214.3,12.9 220.4,19.5 220.4,29.9 C220.4,40.4 214.3,46.9 204.7,46.9 C195.1,46.8 189,40.3 189,29.9 Z M213.5,29.9 C213.5,22.7 210.2,18.5 204.7,18.5 C199.2,18.5 195.9,22.8 195.9,29.9 C195.9,37.1 199.2,41.3 204.7,41.3 C210.2,41.2 213.5,37 213.5,29.9 L213.5,29.9 Z" id="Shape"></path>
                        <path d="M226.1,13.3 L232.6,13.3 L232.6,18.9 L232.8,18.9 C233.7,15.3 237,12.8 240.8,12.9 C241.6,12.9 242.4,13 243.1,13.2 L243.1,19.6 C242.1,19.3 241.1,19.2 240,19.2 C236.2,19 233,22 232.9,25.8 C232.9,26.2 232.9,26.5 232.9,26.9 L232.9,46.6 L226.1,46.6 L226.1,13.3 Z" id="Path"></path>
                        <path d="M274.4,36.7 C273.5,42.7 267.6,46.8 260.1,46.8 C250.5,46.8 244.5,40.3 244.5,30 C244.5,19.6 250.5,12.9 259.8,12.9 C269,12.9 274.7,19.2 274.7,29.2 L274.7,31.5 L251.3,31.5 L251.3,32 C250.9,36.7 254.4,40.9 259.1,41.4 C259.5,41.4 259.8,41.4 260.2,41.4 C263.5,41.7 266.6,39.8 267.9,36.7 L274.4,36.7 Z M251.4,26.8 L268,26.8 C268.2,22.4 264.9,18.6 260.5,18.4 C260.3,18.4 260.1,18.4 259.9,18.4 C255.2,18.4 251.4,22.1 251.4,26.8 C251.4,26.7 251.4,26.8 251.4,26.8 Z" id="Shape"></path>
                    </g>
                    <g id="Group" transform="translate(93.000000, 0.000000)">
                        <path d="M0.7,13.7 C0.7,6.6 4.5,2.2 10.5,2.2 C15,2 19,5.3 19.6,9.8 L16.2,9.8 C15.6,7.1 13.2,5.3 10.5,5.4 C6.6,5.4 4.1,8.6 4.1,13.7 C4.1,18.8 6.6,22 10.5,22 C13.1,22.2 15.5,20.5 16.2,18 L19.6,18 C18.9,22.4 15,25.5 10.5,25.2 C4.5,25.1 0.7,20.7 0.7,13.7 Z" id="Path"></path>
                        <path d="M23.3,16.3 C22.9,12 26,8.2 30.3,7.8 C34.6,7.4 38.4,10.5 38.8,14.8 C38.8,15.3 38.8,15.8 38.8,16.3 C39.2,20.6 36.1,24.4 31.8,24.8 C27.5,25.2 23.7,22.1 23.3,17.8 C23.3,17.4 23.3,16.8 23.3,16.3 Z M35.5,16.3 C35.5,12.7 33.9,10.6 31.1,10.6 C28.3,10.6 26.7,12.7 26.7,16.3 C26.7,19.9 28.3,22 31.1,22 C33.9,22 35.5,19.9 35.5,16.3 Z" id="Shape"></path>
                        <path d="M43.2,8.1 L46.3,8.1 L46.3,10.7 L46.5,10.7 C47.3,8.8 49.3,7.6 51.4,7.8 C54.4,7.6 56.9,9.8 57.1,12.7 C57.1,13.1 57.1,13.5 57.1,13.9 L57.1,24.6 L54,24.6 L54,14.7 C54,12.1 52.8,10.7 50.4,10.7 C48.3,10.6 46.5,12.2 46.4,14.3 C46.4,14.5 46.4,14.7 46.4,14.9 L46.4,24.5 L43.1,24.5 L43.2,8.1 Z" id="Path"></path>
                        <path d="M68.3,7.8 C72,7.8 74.4,9.5 74.7,12.4 L71.6,12.4 C71.3,11.2 70.1,10.4 68.3,10.4 C66.5,10.4 65.1,11.3 65.1,12.5 C65.1,13.5 65.9,14.1 67.7,14.5 L70.4,15.1 C73.5,15.8 75,17.2 75,19.6 C75,22.7 72.1,24.8 68.2,24.8 C64.3,24.8 61.7,23 61.4,20.1 L64.7,20.1 C65.3,21.5 66.8,22.4 68.3,22.2 C70.3,22.2 71.8,21.3 71.8,20 C71.8,19 71,18.4 69.4,18 L66.5,17.3 C63.4,16.6 61.9,15.2 61.9,12.7 C61.9,9.8 64.5,7.8 68.3,7.8 Z" id="Path"></path>
                        <path d="M79.1,5.4 L82.9,0.2 L86.7,0.2 L82.4,5.4 L79.1,5.4 Z M79.5,8.1 L82.7,8.1 L82.7,24.6 L79.5,24.6 L79.5,8.1 Z" id="Shape"></path>
                        <path d="M87.8,26.2 L91.1,26.2 C91.4,27.4 92.8,28.2 94.9,28.2 C97.6,28.2 99.2,26.9 99.2,24.7 L99.2,21.5 L99,21.5 C98,23.3 96,24.4 93.9,24.3 C89.7,24.3 87.1,21 87.1,16.1 C87.1,11.1 89.7,7.8 93.9,7.8 C96,7.7 98,8.8 99.1,10.7 L99.4,10.7 L99.4,8.1 L102.5,8.1 L102.5,24.7 C102.5,28.5 99.5,30.9 94.9,30.9 C90.8,30.9 88.1,29 87.8,26.2 Z M99.3,16.1 C99.3,12.8 97.6,10.7 94.8,10.7 C92,10.7 90.4,12.8 90.4,16.1 C90.4,19.4 92,21.5 94.8,21.5 C97.6,21.5 99.3,19.4 99.3,16.1 Z" id="Shape"></path>
                        <path d="M121.6,24.6 L118.5,24.6 L118.5,22 L118.2,22 C117.3,23.9 115.3,25.1 113.2,24.9 C110.3,25.1 107.7,22.9 107.5,19.9 C107.5,19.5 107.5,19.1 107.5,18.8 L107.5,8.1 L110.8,8.1 L110.8,18 C110.8,20.7 111.9,21.9 114.3,21.9 C116.4,22.1 118.2,20.6 118.4,18.5 C118.4,18.2 118.4,18 118.4,17.7 L118.4,8.1 L121.7,8.1 L121.6,24.6 Z" id="Path"></path>
                        <path d="M140.7,20.1 C139.8,23.2 136.8,25.2 133.6,24.9 C129.5,25 126,21.7 125.9,17.6 C125.9,17.2 125.9,16.8 126,16.4 C125.4,12.2 128.4,8.4 132.5,7.9 C132.9,7.9 133.2,7.8 133.6,7.8 C138.2,7.8 141,10.9 141,16.1 L141,17.2 L129.4,17.2 L129.4,17.4 C129.2,19.8 131,21.9 133.4,22.1 C133.5,22.1 133.7,22.1 133.8,22.1 C135.4,22.3 136.9,21.5 137.7,20.1 L140.7,20.1 Z M129.3,14.8 L137.6,14.8 C137.8,12.6 136.1,10.7 133.9,10.5 C133.8,10.5 133.6,10.5 133.5,10.5 C131.2,10.5 129.3,12.3 129.2,14.7 C129.3,14.8 129.3,14.8 129.3,14.8 Z" id="Shape"></path>
                        <polygon id="Path" points="145.4 1.7 148.7 1.7 148.7 24.6 145.4 24.6"></polygon>
                        <path d="M153.2,16.3 C152.8,12 155.9,8.2 160.2,7.8 C164.5,7.4 168.3,10.5 168.7,14.8 C168.7,15.3 168.7,15.8 168.7,16.3 C169.1,20.6 166,24.4 161.7,24.8 C157.4,25.2 153.6,22.1 153.2,17.8 C153.2,17.4 153.2,16.8 153.2,16.3 Z M165.4,16.3 C165.4,12.7 163.8,10.6 161,10.6 C158.2,10.6 156.6,12.7 156.6,16.3 C156.6,19.9 158.2,22 161,22 C163.8,22 165.4,19.9 165.4,16.3 Z" id="Shape"></path>
                        <path d="M196,20.1 C195.1,23.2 192.1,25.2 188.9,24.9 C184.8,25 181.3,21.7 181.2,17.6 C181.2,17.2 181.2,16.8 181.3,16.4 C180.7,12.2 183.7,8.4 187.8,7.9 C188.2,7.9 188.5,7.8 188.9,7.8 C193.5,7.8 196.3,10.9 196.3,16.1 L196.3,17.2 L184.7,17.2 L184.7,17.4 C184.5,19.8 186.3,21.9 188.7,22.1 C188.8,22.1 189,22.1 189.1,22.1 C190.7,22.3 192.2,21.5 193,20.1 L196,20.1 Z M184.6,14.8 L192.9,14.8 C193.1,12.6 191.4,10.7 189.2,10.5 C189.1,10.5 188.9,10.5 188.8,10.5 C186.5,10.5 184.6,12.3 184.5,14.7 C184.6,14.8 184.6,14.8 184.6,14.8 L184.6,14.8 Z" id="Shape"></path>
                        <path d="M200.6,8.1 L203.7,8.1 L203.7,10.7 L203.9,10.7 C204.7,8.8 206.7,7.6 208.8,7.8 C211.8,7.6 214.3,9.8 214.5,12.7 C214.5,13.1 214.5,13.5 214.5,13.9 L214.5,24.6 L211.2,24.6 L211.2,14.7 C211.2,12.1 210,10.7 207.6,10.7 C205.5,10.6 203.7,12.2 203.6,14.3 C203.6,14.5 203.6,14.7 203.6,14.9 L203.6,24.5 L200.3,24.5 L200.6,8.1 Z" id="Path"></path>
                        <path d="M242.5,20.1 C241.6,23.2 238.6,25.2 235.4,24.9 C231.3,25 227.8,21.7 227.7,17.6 C227.7,17.2 227.7,16.8 227.8,16.4 C227.2,12.2 230.2,8.4 234.3,7.9 C234.7,7.9 235,7.8 235.4,7.8 C240,7.8 242.8,10.9 242.8,16.1 L242.8,17.2 L231,17.2 L231,17.4 C230.8,19.8 232.6,21.9 235,22.1 C235.1,22.1 235.3,22.1 235.4,22.1 C237,22.3 238.5,21.5 239.3,20.1 L242.5,20.1 Z M231,14.8 L239.3,14.8 C239.5,12.6 237.8,10.7 235.6,10.5 C235.5,10.5 235.3,10.5 235.2,10.5 C232.9,10.5 231,12.3 230.9,14.7 C231,14.8 231,14.8 231,14.8 L231,14.8 Z" id="Shape"></path>
                        <polygon id="Path" points="247.2 1.7 250.5 1.7 250.5 24.6 247.2 24.6"></polygon>
                    </g>
                </g>
            </g>
        </g>
    </g>
</svg>