<?xml version="1.0" encoding="UTF-8"?>
<svg width="198px" height="26px" viewBox="0 0 198 26" version="1.1" xmlns="http://www.w3.org/2000/svg" xmlns:xlink="http://www.w3.org/1999/xlink">
    <!-- Generator: Sketch 48.1 (47250) - http://www.bohemiancoding.com/sketch -->
    <title>gen_logoHeader</title>
    <desc>Created with Sketch.</desc>
    <defs>
        <polygon id="path-1" points="16.0908 13.3659429 16.0908 0.188152381 0.158714286 0.188152381 0.158714286 13.3659429 16.0908 13.3659429"></polygon>
        <polygon id="path-3" points="15.0645314 0 0 0 0 26.4 15.0645314 26.4 30.1290629 26.4 30.1290629 0"></polygon>
    </defs>
    <g id="BRAND-HEADER" stroke="none" stroke-width="1" fill="none" fill-rule="evenodd">
        <g id="gen_logoHeader">
            <g id="Page-1">
                <path d="M106.652857,24.4361333 C105.774324,24.4361333 104.980648,23.6990286 104.980648,22.8204952 C104.980648,21.9417524 105.774324,21.2046476 106.652857,21.2046476 C107.560095,21.2046476 108.353981,21.9417524 108.353981,22.8204952 C108.353981,23.6990286 107.560095,24.4361333 106.652857,24.4361333" id="Fill-1" fill="#3A3A3A"></path>
                <path d="M43.820061,12.9022876 C42.7470895,12.9022876 41.7901943,13.3158876 41.0941562,14.0322495 L41.0941562,18.5495829 C41.0941562,20.0925162 41.2391467,23.0952019 43.7622324,23.0952019 C46.1112038,23.0952019 46.3722705,19.4036019 46.3722705,17.8612971 C46.3722705,14.9139257 45.6473181,12.9022876 43.820061,12.9022876 M43.7331086,24.4449543 C39.6440419,24.4449543 37.6717943,22.3237352 37.6717943,18.5219257 L37.6717943,5.74013524 C37.6717943,5.3544019 37.9619848,5.0788781 38.3389181,5.0788781 L40.4272419,5.0788781 C40.8039657,5.0788781 41.0941562,5.3544019 41.0941562,5.74013524 L41.0941562,12.5722876 C42.1671276,11.5527448 43.3561752,11.3325352 44.4873943,11.3325352 C48.286061,11.3325352 49.765299,14.6928781 49.765299,17.8338495 C49.765299,21.4971638 47.9093371,24.4449543 43.7331086,24.4449543" id="Fill-3" fill="#3A3A3A"></path>
                <path d="M57.2692895,12.6686267 C54.8664705,12.6686267 54.5769086,16.2986267 54.5769086,17.8388362 C54.5769086,19.4058648 54.8375562,23.0909695 57.211461,23.0909695 C59.5853657,23.0909695 59.8751371,19.4058648 59.8751371,17.8388362 C59.8751371,16.2986267 59.61428,12.6686267 57.2692895,12.6686267 M57.2403752,24.4382076 C53.0427752,24.4382076 51.1899562,21.5509695 51.1899562,17.8658648 C51.1899562,14.2088362 53.0427752,11.3213886 57.2403752,11.3213886 C61.409061,11.3213886 63.2620895,14.2088362 63.2620895,17.8658648 C63.2620895,21.5509695 61.409061,24.4382076 57.2403752,24.4382076" id="Fill-5" fill="#3A3A3A"></path>
                <path d="M73.3639448,14.0164095 C72.6691638,13.2183333 71.5978686,12.8883333 70.5846114,12.8883333 C68.2398305,12.8883333 68.09484,16.2987524 68.09484,17.8387524 C68.09484,19.3783333 68.2398305,22.8159905 70.5846114,22.8159905 C71.5978686,22.8159905 72.6691638,22.1283333 73.3639448,21.3310952 L73.3639448,14.0164095 Z M77.6197924,24.4381238 C75.7954686,24.4381238 74.0874305,23.9434381 73.682421,22.4859905 C72.5822114,23.6683333 71.1888781,24.4431524 69.7706114,24.4431524 C66.1225924,24.4431524 64.7078876,20.8081238 64.7078876,17.8110952 C64.7078876,14.8413048 66.1552781,11.3215143 69.8028781,11.3215143 C71.1059067,11.3215143 72.292859,11.5687524 73.334821,12.5589619 L73.334821,5.71151429 C73.334821,5.35385714 73.6532971,5.0789619 74.0298114,5.0789619 L76.1143638,5.0789619 C76.490459,5.0789619 76.7798114,5.35385714 76.7798114,5.71151429 L76.7798114,21.0836476 C76.7798114,22.7059905 77.7065352,22.8501429 78.8932781,22.8501429 C79.8484971,22.8501429 80.9778305,22.5201429 81.8750114,22.1901429 C82.338059,22.2178 82.5117543,22.7608857 82.5117543,23.0359905 C82.5117543,23.173019 82.4830495,23.3108857 82.3960971,23.4210952 C81.1802305,24.053019 79.4143638,24.4381238 77.6197924,24.4381238 Z" id="Fill-7" fill="#3A3A3A"></path>
                <path d="M88.230099,21.3145429 C87.5353181,22.1122 86.4853943,22.8270952 85.4721371,22.8270952 C83.1271467,22.8270952 82.9612038,19.3624095 82.9612038,17.8222 C82.9612038,16.2824095 83.2216419,12.6524095 85.5955467,12.6524095 C88.0855276,12.6524095 88.230099,15.6224095 88.230099,17.162619 L88.230099,21.3145429 Z M95.9254895,15.3634381 C95.65688,19.6953429 93.8296229,22.851819 92.3026133,22.851819 C91.6478514,22.851819 91.6459657,22.5322952 91.6459657,21.0670952 L91.6459657,18.1848857 C91.6654514,16.1925238 91.6191467,12.463 91.6191467,12.463 C91.596099,11.865019 91.72328,11.3122952 91.0450514,11.3099905 L88.7340038,11.3022381 C88.4002324,11.3011905 88.238899,11.5184667 88.1821181,11.7709429 C88.180861,11.7768095 88.1752038,11.7799524 88.1699657,11.7776476 C87.4412419,11.4744667 86.5985371,11.2951143 85.624461,11.305381 C81.4270705,11.3487524 79.5740419,14.192619 79.5740419,17.8498571 C79.5740419,20.8470952 81.0214324,24.4219905 84.6692419,24.4219905 C86.082899,24.4219905 87.4393562,23.6572286 88.5374705,22.481381 C88.5422895,22.4759333 88.5498324,22.4784476 88.5527657,22.4853619 C89.2854705,24.2032476 90.4315657,24.4584476 91.6945752,24.4563524 C96.1553371,24.4492286 97.6387657,17.2451714 97.6387657,17.2451714 C97.6387657,17.2451714 95.9259086,15.3527524 95.9254895,15.3634381 Z" id="Fill-9" fill="#3A3A3A"></path>
                <path d="M99.0889219,15.0756781 C99.0908076,15.0754686 99.0970933,15.0771448 99.0983505,15.0767257 C98.3488838,14.4582114 98.3499314,12.9689162 98.4316457,12.056859 C98.4678933,11.6526876 98.1523505,11.304459 97.7465029,11.3063448 C97.22416,11.3086495 96.5515886,11.3111638 96.0910552,11.3101162 C95.7537219,11.3094876 95.4524267,11.5317924 95.366941,11.85844 C95.1312267,12.7631638 95.1475695,13.8640019 95.2062362,14.2633543 C95.4054933,15.6240019 96.1249981,16.7411829 97.5531124,17.6991257 C98.2992267,18.2015638 101.008998,19.7222876 101.216217,21.1374114 C101.39955,22.3886876 100.464446,23.1995448 99.5123695,23.276859 C98.7924457,23.3348971 98.1307695,22.6748971 97.8252838,22.203259 C97.6874171,21.9905924 97.399741,21.9361162 97.2027886,22.0957733 C97.1818362,22.1125352 97.1610933,22.1295067 97.14056,22.1466876 C96.9012838,22.3444781 96.8218743,22.6813924 96.9609981,22.9590114 C97.2555886,23.5473543 97.9838933,24.44684 99.6827124,24.44684 C101.824884,24.44684 103.991989,22.5093733 103.605627,19.8702114 C103.333036,18.010059 101.033093,16.44764 99.0889219,15.0756781" id="Fill-11" fill="#3A3A3A"></path>
                <path d="M115.900128,24.4704952 C111.804147,24.4704952 110.032413,21.4615238 110.032413,17.7889905 C110.032413,14.3377143 111.949766,11.3274857 115.784261,11.3274857 C116.887823,11.3274857 119.590261,11.6317143 119.590261,12.5150667 C119.590261,12.8746095 119.269899,13.1503429 118.892547,13.1503429 C117.352547,12.6805905 116.945651,12.5978286 116.480718,12.5978286 C113.721499,12.5978286 113.460013,15.9663429 113.460013,17.8162286 C113.460013,21.2675048 114.244261,23.1731238 116.42289,23.1731238 C117.149099,23.1731238 118.573232,22.8133714 119.35727,22.5648762 C119.822204,22.5933714 120.055194,22.8688952 120.055194,23.1731238 C120.055194,23.3114095 119.996109,23.4484381 119.909785,23.5869333 C118.950585,24.0837143 117.178851,24.4704952 115.900128,24.4704952" id="Fill-13" fill="#3A3A3A"></path>
                <path d="M126.538992,12.6806952 C124.127373,12.6806952 123.836554,16.325781 123.836554,17.8716476 C123.836554,19.4460095 124.09804,23.145781 126.481164,23.145781 C128.86324,23.145781 129.153011,19.4460095 129.153011,17.8716476 C129.153011,16.325781 128.891735,12.6806952 126.538992,12.6806952 M126.50945,24.4976286 C122.297811,24.4976286 120.438497,21.5986571 120.438497,17.8988857 C120.438497,14.227819 122.297811,11.3275905 126.50945,11.3275905 C130.692802,11.3275905 132.552116,14.227819 132.552116,17.8988857 C132.552116,21.5986571 130.692802,24.4976286 126.50945,24.4976286" id="Fill-15" fill="#3A3A3A"></path>
                <path d="M158.242773,24.4891219 C157.35984,24.4891219 156.562392,23.7486648 156.562392,22.8657314 C156.562392,21.9825886 157.35984,21.2421314 158.242773,21.2421314 C159.154411,21.2421314 159.951859,21.9825886 159.951859,22.8657314 C159.951859,23.7486648 159.154411,24.4891219 158.242773,24.4891219" id="Fill-17" fill="#3A3A3A"></path>
                <path d="M152.108461,16.2082171 L152.108461,21.1724648 C152.108461,22.8092648 153.013604,23.22496 154.239737,23.22496 C154.80147,23.22496 155.180709,24.4923695 152.955356,24.4923695 C149.042918,24.4923695 148.66368,22.7256648 148.66368,19.7307314 L148.66368,15.26536 C148.66368,13.6015314 148.429851,12.9639505 147.524709,12.9639505 C146.794937,12.9639505 145.948251,13.6015314 145.247394,14.4609981 L145.247394,23.85856 C145.247394,24.2191505 144.926404,24.4967695 144.546747,24.4967695 L142.503051,24.4967695 C142.123604,24.4967695 141.802404,24.2191505 141.802404,23.85856 L141.802404,14.9326362 C141.802404,13.4906933 141.364499,12.9639505 140.72189,12.9639505 C139.846499,12.9639505 139.087185,13.6293981 138.415661,14.4609981 L138.415661,23.85856 C138.415661,24.2191505 138.094461,24.4967695 137.715013,24.4967695 L135.642194,24.4967695 C135.262537,24.4967695 134.941337,24.2191505 134.941337,23.85856 L134.941337,12.0003505 C134.941337,11.640179 135.262537,11.3627695 135.642194,11.3627695 L137.715013,11.3627695 C138.094461,11.3627695 138.415661,11.640179 138.415661,12.0003505 L138.415661,12.9639505 C139.262137,12.0483314 140.284194,11.32736 141.860861,11.32736 C143.262156,11.32736 144.634328,11.7711314 145.043109,13.2411505 C145.977375,12.1317219 147.05768,11.32736 148.692594,11.32736 C151.933299,11.32736 152.108461,13.2966743 152.108461,16.2082171" id="Fill-19" fill="#3A3A3A"></path>
                <path d="M178.83073,16.1535943 L178.83073,21.0991943 C178.83073,22.729499 179.733358,22.8715562 180.954253,22.8357276 C182.278863,22.7969657 182.972177,22.4116514 183.768158,22.1034419 C184.23351,22.1308895 184.619453,22.812261 184.619453,23.0888324 C184.619453,24.000261 181.186825,24.4700133 179.674272,24.4700133 C175.776501,24.4700133 175.39852,22.6463181 175.39852,19.6624895 L175.39852,15.2140895 C175.39852,13.5563371 175.16553,12.9204324 174.263949,12.9204324 C173.536901,12.9204324 172.693358,13.5563371 171.995225,14.412661 L171.995225,23.7915752 C171.995225,24.1509086 171.675282,24.427061 171.296882,24.427061 L169.26073,24.427061 C168.882749,24.427061 168.562806,24.1509086 168.562806,23.7915752 L168.562806,14.8824133 C168.562806,13.4457086 168.126577,12.9204324 167.486272,12.9204324 C166.614025,12.9204324 165.857434,13.5837848 165.188634,14.412661 L165.188634,23.7915752 C165.188634,24.1509086 164.868482,24.427061 164.49071,24.427061 L162.425225,24.427061 C162.047244,24.427061 161.727091,24.1509086 161.727091,23.7915752 L161.708444,11.9140895 C161.708444,11.5545467 162.093968,11.2781848 162.471949,11.2781848 L164.537225,11.2781848 C164.915206,11.2781848 165.235149,11.5545467 165.235149,11.9140895 L165.188634,12.9204324 C166.031968,12.0090038 167.050044,11.2907562 168.620844,11.2907562 C170.01711,11.2907562 171.384253,11.7326419 171.791358,13.1972133 C172.722272,12.0917657 173.798596,11.2907562 175.427434,11.2907562 C178.656196,11.2907562 178.83073,13.2521086 178.83073,16.1535943" id="Fill-21" fill="#3A3A3A"></path>
                <g id="Group-25" transform="translate(181.866667, 11.104762)">
                    <mask id="mask-2" fill="white">
                        <use xlink:href="#path-1"></use>
                    </mask>
                    <g id="Clip-24"></g>
                    <path d="M5.70145714,8.65165714 L2.07397143,13.2006286 C1.95789524,13.3106286 1.78378095,13.3382857 1.63858095,13.3382857 C1.2034,13.3382857 0.738885714,13.0074476 0.738885714,12.4836381 L0.738885714,12.4010857 L5.005,6.99767619 L2.85759048,2.58678095 C2.53806667,1.89765714 2.07397143,1.73234286 1.55162857,1.73234286 C1.29035238,1.73234286 1.02907619,1.75958095 0.768009524,1.81468571 C0.361742857,1.75958095 0.158714286,1.42874286 0.158714286,1.1255619 C0.158714286,0.987695238 0.216542857,0.850038095 0.303704762,0.739619048 C0.971247619,0.464095238 1.75465714,0.215809524 2.77042857,0.215809524 C4.22159048,0.215809524 5.64362857,0.711961905 6.39791429,2.14552381 L7.93602857,5.09540952 L11.7956667,0.298780952 C11.9119524,0.215809524 12.0569429,0.188152381 12.2019333,0.188152381 C12.6373238,0.188152381 13.1016286,0.5192 13.1016286,0.987695238 L13.1016286,1.1255619 L8.74877143,6.61173333 L11.0411714,11.0500762 C11.3894,11.7668571 12.114981,12.0151429 12.8986,12.0151429 C13.8272095,12.0151429 14.842981,11.6566476 15.4522762,11.3809143 C15.8587524,11.4085714 16.0909048,11.6843048 16.0909048,11.9874857 C16.0909048,12.8421333 12.8405619,13.3659429 11.2444095,13.3659429 C9.50326667,13.3659429 7.99406667,12.9248952 7.12349524,11.3258095 L5.70145714,8.65165714 Z" id="Fill-23" fill="#3A3A3A" mask="url(#mask-2)"></path>
                </g>
                <g id="Group-28">
                    <mask id="mask-4" fill="white">
                        <use xlink:href="#path-3"></use>
                    </mask>
                    <g id="Clip-27"></g>
                    <path d="M27.5152533,4.89740952 C27.5152533,10.2461333 21.6919581,20.544019 18.5782248,24.5538857 C17.2917486,22.4320381 14.7632152,20.3148 12.0905295,18.0768762 C7.81687238,14.4982095 3.39801524,10.7982286 3.08477714,6.4539619 C2.97289143,4.90348571 3.31651048,3.68761905 4.10536762,2.83988571 C4.85609143,2.03300952 5.85300571,1.74575238 6.53584381,1.74575238 C8.67738667,1.74575238 10.9758629,5.9584381 12.8230248,9.34371429 C14.3720343,12.1829714 15.3630819,13.9232762 16.1781295,13.9232762 C16.5385105,13.9232762 16.9736914,13.5373333 16.9736914,13.0579429 C16.9736914,11.8624 21.4709105,2.29533333 25.8195771,2.29533333 C25.9930629,2.29533333 27.5152533,2.36845714 27.5152533,4.89740952 M24.9978248,0.559638095 C21.9930438,0.559638095 18.2798629,3.48752381 16.0817486,7.56024762 C14.0933676,3.29895238 9.99990095,0 6.65192,0 C2.33132952,0 -4.19047619e-05,3.41565714 -4.19047619e-05,6.62933333 C-4.19047619e-05,14.6237143 10.40072,21.111619 15.988301,24.5970476 C17.15912,25.3274476 18.0837486,25.9040571 18.6672724,26.3402857 L18.747101,26.4 L18.8321676,26.3474095 C26.1059962,21.8290286 30.1290629,11.4473333 30.1290629,5.99866667 C30.1290629,2.59285714 28.2106629,0.559638095 24.9978248,0.559638095" id="Fill-26" fill="#F76C6F" mask="url(#mask-4)"></path>
                </g>
            </g>
        </g>
    </g>
</svg>